<svg xmlns="http://www.w3.org/2000/svg" viewBox="0 0 500 500"><g id="freepik--background-complete--inject-3"><path d="M351.64,451.09c-1.75-1.51-5.66-6.27-2.64-11.81,1.1-2,3.45-3,5.58-3.93s4.36-1.67,6.11-3.17c3.32-2.82,4.24-7.51,6.44-11.28,2.53-4.32,7.24-7.56,12.23-7.33,5.71.26,10.47,4.92,12.63,10.24s2.23,11.22,2.27,17c0,3.17-.11,6.75-2.44,8.89-2.15,2-5.39,2-8.3,1.91l-31.19-.95" style="fill:#f5f5f5"></path><path d="M411.31,365.31h-82l14.78,88.11a9.85,9.85,0,0,0,7,7.85l.29.08c.24.06.48.14.73.19a11.38,11.38,0,0,0,1.67.19v.08l.4-.06h36.57a10.3,10.3,0,0,0,2-.2,9.9,9.9,0,0,0,8.3-8.61l7.12-60.72.32-2.41h0l2.82-24Zm-15.48,56.2h-8.42l.85-25.57H398Zm3-25.57h8.06l-3,25.57h-7.24Zm-24.05,53.92-.51-22.21h12.12l-.73,22.21Zm-13.1-22.21h11.78l.51,22.21H363.4Zm.91,22.21h-9.88l-3.48-22.21h11.63Zm-1.39-28.35-2-25.57h13.51l.59,25.57Zm12.93,0-.59-25.57h13.91l-.85,25.57Zm-.73-31.7-.55-23.68h15.59l-.79,23.68Zm-.82,0H358.73l-1.84-23.68H372Zm-14.66,0H343.27c-.52-3.27-1-6.37-1.46-9.15-1.53-9.58-2.1-13.18-2.42-14.53h16.69Zm.47,6.13,2,25.57H348.26c-.4-2.59-.82-5.21-1.23-7.84l-2.79-17.73Zm-10.95,25.57h-7.92l-4.29-25.57h8.18C344.66,403.85,346.05,412.64,347.44,421.51Zm1,6.14c1.21,7.69,2.4,15.27,3.48,22.21h-7.6l-3.73-22.21Zm38.07,22.21.74-22.21h8.1l-1.9,22.21Zm2-60.05.78-23.68h11.31l-2,23.68Zm-49.86-23.68c.33,1.71,1.82,11,3.83,23.68h-8.23l-4-23.68Zm62,83.73h-6.34l1.89-22.21h7.05Zm7-60.05h-8.25l2-23.68h9Z" style="fill:#e0e0e0"></path><rect x="196.69" y="41.23" width="90.62" height="81.07" style="fill:#fafafa"></rect><path d="M287.31,122.31s0-.52,0-1.51,0-2.45,0-4.34c0-3.81,0-9.37-.06-16.46,0-14.16-.06-34.41-.1-58.77l.2.21-90.61,0h0l.24-.25c0,29.5,0,57.25,0,81.08l-.22-.22,65.55.11,18.48.06,4.9,0,1.26,0h-1.22l-4.85,0-18.44,0-65.68.11h-.21v-.21c0-23.83,0-51.58,0-81.08V41h.25l90.61,0h.21v.2c0,24.42-.08,44.7-.11,58.9,0,7.07,0,12.62-.05,16.41,0,1.88,0,3.32,0,4.31S287.31,122.31,287.31,122.31Z" style="fill:#e0e0e0"></path><path d="M231.44,55.64c0,.13-4.77.24-10.65.24s-10.66-.11-10.66-.24,4.77-.24,10.66-.24S231.44,55.51,231.44,55.64Z" style="fill:#e0e0e0"></path><path d="M269.84,61.73c0,.13-13.11.24-29.27.24s-29.27-.11-29.27-.24,13.11-.25,29.27-.25S269.84,61.59,269.84,61.73Z" style="fill:#e0e0e0"></path><rect x="210.29" y="72.04" width="3.82" height="3.82" style="fill:#e0e0e0"></rect><rect x="219.69" y="72.04" width="3.82" height="3.82" style="fill:#e0e0e0"></rect><rect x="229.26" y="71.86" width="3.82" height="3.82" style="fill:#e0e0e0"></rect><rect x="238.48" y="72.04" width="3.82" height="3.82" style="fill:#e0e0e0"></rect><rect x="247.88" y="72.04" width="3.82" height="3.82" style="fill:#e0e0e0"></rect><rect x="257.28" y="72.04" width="3.82" height="3.82" style="fill:#e0e0e0"></rect><rect x="266.68" y="72.04" width="3.82" height="3.82" style="fill:#ebebeb"></rect><rect x="210.29" y="80.15" width="3.82" height="3.82" style="fill:#ebebeb"></rect><rect x="219.69" y="80.15" width="3.82" height="3.82" style="fill:#e0e0e0"></rect><rect x="229.09" y="80.15" width="3.82" height="3.82" style="fill:#ebebeb"></rect><rect x="238.48" y="80.15" width="3.82" height="3.82" style="fill:#e0e0e0"></rect><rect x="247.88" y="80.15" width="3.82" height="3.82" style="fill:#e0e0e0"></rect><rect x="257.45" y="79.98" width="3.82" height="3.82" style="fill:#e0e0e0"></rect><rect x="266.68" y="80.15" width="3.82" height="3.82" style="fill:#e0e0e0"></rect><rect x="210.29" y="88.27" width="3.82" height="3.82" style="fill:#e0e0e0"></rect><rect x="219.86" y="88.1" width="3.82" height="3.82" style="fill:#e0e0e0"></rect><rect x="229.09" y="88.27" width="3.82" height="3.82" style="fill:#e0e0e0"></rect><rect x="238.48" y="88.27" width="3.82" height="3.82" style="fill:#ebebeb"></rect><rect x="247.88" y="88.27" width="3.82" height="3.82" style="fill:#e0e0e0"></rect><rect x="257.28" y="88.27" width="3.82" height="3.82" style="fill:#e0e0e0"></rect><rect x="266.68" y="88.27" width="3.82" height="3.82" style="fill:#e0e0e0"></rect><rect x="210.29" y="96.39" width="3.82" height="3.82" style="fill:#e0e0e0"></rect><rect x="219.69" y="96.39" width="3.82" height="3.82" style="fill:#e0e0e0"></rect><rect x="229.09" y="96.39" width="3.82" height="3.82" style="fill:#e0e0e0"></rect><rect x="238.66" y="96.21" width="3.82" height="3.82" style="fill:#e0e0e0"></rect><rect x="247.88" y="96.39" width="3.82" height="3.82" style="fill:#e0e0e0"></rect><rect x="257.28" y="96.39" width="3.82" height="3.82" style="fill:#ebebeb"></rect><rect x="266.68" y="96.39" width="3.82" height="3.82" style="fill:#e0e0e0"></rect><rect x="210.29" y="104.5" width="3.82" height="3.82" style="fill:#e0e0e0"></rect><rect x="219.69" y="104.5" width="3.82" height="3.82" style="fill:#ebebeb"></rect><rect x="229.09" y="104.5" width="3.82" height="3.82" style="fill:#e0e0e0"></rect><rect x="238.48" y="104.5" width="3.82" height="3.82" style="fill:#e0e0e0"></rect><rect x="247.88" y="104.5" width="3.82" height="3.82" style="fill:#e0e0e0"></rect><rect x="257.45" y="104.33" width="3.82" height="3.82" style="fill:#e0e0e0"></rect><rect x="266.68" y="104.5" width="3.82" height="3.82" style="fill:#e0e0e0"></rect><rect x="76.29" y="131.76" width="61.82" height="64.44" style="fill:#e0e0e0"></rect><rect x="72.1" y="131.76" width="61.82" height="64.44" style="fill:#fafafa"></rect><path d="M133.94,196.22H72.08V131.74h61.86Zm-61.82,0H133.9v-64.4H72.12Z" style="fill:#e0e0e0"></path><rect x="80.41" y="140.42" width="45.2" height="47.12" style="fill:#fff"></rect><path d="M80.41,187.85a6.65,6.65,0,0,1-1.11,1.3c-.73.76-1.74,1.79-2.88,2.91s-2.18,2.12-3,2.83A7,7,0,0,1,72.16,196a7.19,7.19,0,0,1,1.11-1.29c.72-.77,1.74-1.8,2.88-2.92s2.19-2.13,3-2.83A7.62,7.62,0,0,1,80.41,187.85Z" style="fill:#e0e0e0"></path><path d="M125.61,187.74a7,7,0,0,1,1.3,1.11c.76.73,1.79,1.74,2.91,2.88s2.12,2.18,2.83,3a7.16,7.16,0,0,1,1.08,1.31,7.76,7.76,0,0,1-1.29-1.11c-.76-.73-1.79-1.74-2.92-2.88s-2.12-2.19-2.83-3A7.2,7.2,0,0,1,125.61,187.74Z" style="fill:#e0e0e0"></path><path d="M125.49,140.55a7.42,7.42,0,0,1,1.11-1.3c.72-.76,1.74-1.79,2.87-2.91s2.19-2.12,3-2.83a7.35,7.35,0,0,1,1.3-1.08,6.69,6.69,0,0,1-1.11,1.29c-.72.76-1.73,1.79-2.87,2.92s-2.19,2.12-3,2.83A7.2,7.2,0,0,1,125.49,140.55Z" style="fill:#e0e0e0"></path><path d="M80.29,140.67a8,8,0,0,1-1.3-1.12c-.76-.72-1.79-1.74-2.91-2.87s-2.12-2.18-2.83-3a7.18,7.18,0,0,1-1.09-1.3,7.19,7.19,0,0,1,1.29,1.11c.77.72,1.8,1.74,2.92,2.88s2.13,2.18,2.83,3A7.18,7.18,0,0,1,80.29,140.67Z" style="fill:#e0e0e0"></path><path d="M125.49,187.54a.82.82,0,0,1,0-.23c0-.16,0-.38,0-.66,0-.59,0-1.44,0-2.54,0-2.23,0-5.48,0-9.6,0-8.25-.05-20-.09-34.09l.18.18-45.07,0h0l.2-.2c0,17.3,0,33.48,0,47.12l-.17-.17,32.64.09,9.17,0,2.42,0h0l-2.39,0-9.13,0-32.75.09h-.17v-.17c0-13.64,0-29.82,0-47.12v-.2h.21l45.07,0h.17v.17c0,14.13-.07,25.92-.09,34.2,0,4.11,0,7.34,0,9.56,0,1.09,0,1.93,0,2.51,0,.27,0,.48,0,.64S125.49,187.54,125.49,187.54Z" style="fill:#e0e0e0"></path><rect x="95.47" y="156.44" width="15.08" height="15.08" style="fill:#ebebeb"></rect><rect x="350.65" y="50.01" width="88.58" height="128.39" style="fill:#e0e0e0"></rect><rect x="346.22" y="50.01" width="88.58" height="128.39" style="fill:#f5f5f5"></rect><rect x="357.22" y="63.92" width="66.57" height="100.58" style="fill:#fff"></rect><path d="M423.79,164.5s0-.18,0-.5,0-.8,0-1.42c0-1.27,0-3.12,0-5.52,0-4.82,0-11.84-.06-20.72,0-17.73-.06-42.85-.1-72.42l.22.22-66.56,0h0l.24-.24c0,37.94,0,72.92,0,100.58l-.19-.2,48.45.1,13.39,0,3.51,0,1.22,0-1.18,0-3.48,0-13.34.05-48.57.1H357v-.19c0-27.66,0-62.64,0-100.58v-.24h.25l66.56,0H424v.22c-.05,29.63-.08,54.8-.11,72.57,0,8.85,0,15.86-.06,20.67,0,2.38,0,4.21,0,5.47,0,.61,0,1.07,0,1.4S423.79,164.5,423.79,164.5Z" style="fill:#e0e0e0"></path><path d="M435,50a15.58,15.58,0,0,1-1.58,2.3c-1,1.37-2.49,3.24-4.15,5.27s-3.23,3.81-4.38,5.09a16.46,16.46,0,0,1-1.95,2,15.91,15.91,0,0,1,1.69-2.21l4.26-5.18,4.26-5.17A17.79,17.79,0,0,1,435,50Z" style="fill:#e0e0e0"></path><path d="M424.13,164.17a82,82,0,0,0,11.61,14.52" style="fill:#fff"></path><path d="M435.74,178.69a12.32,12.32,0,0,1-2-1.84,64.51,64.51,0,0,1-4.38-4.94,61.85,61.85,0,0,1-3.85-5.36,12.47,12.47,0,0,1-1.35-2.38,18.85,18.85,0,0,1,1.63,2.19c1,1.37,2.35,3.25,3.95,5.25s3.13,3.75,4.25,5A18.74,18.74,0,0,1,435.74,178.69Z" style="fill:#e0e0e0"></path><path d="M346.2,178.3,357.81,164" style="fill:#fff"></path><path d="M357.81,164a89.31,89.31,0,0,1-5.62,7.31,85.44,85.44,0,0,1-6,7,86.67,86.67,0,0,1,5.62-7.31A87.55,87.55,0,0,1,357.81,164Z" style="fill:#e0e0e0"></path><path d="M346.22,50a82.63,82.63,0,0,1,5.63,6.73,79.24,79.24,0,0,1,5.25,7A81.83,81.83,0,0,1,351.47,57,76.06,76.06,0,0,1,346.22,50Z" style="fill:#e0e0e0"></path><rect x="380.76" y="84.34" width="22.29" height="63.28" style="fill:#e0e0e0"></rect></g><g id="freepik--Floor--inject-3"><path d="M469.79,461.79c0,.14-98.41.26-219.78.26s-219.8-.12-219.8-.26,98.39-.26,219.8-.26S469.79,461.65,469.79,461.79Z" style="fill:#263238"></path></g><g id="freepik--Plant--inject-3"><path d="M137.37,424.27s-4.66-32-4.27-50.68,0-39.6,0-39.6h2.14s-1.45,37,.13,59.3,5.75,31,5.75,31h-3.73" style="fill:#263238"></path><path d="M151.25,297.94a5.62,5.62,0,0,0-2-2.86c-1.36-.86-3.15-.5-4.67,0-6.48,2.3-12.23,14.39-14.86,20.75l8.62,29C153.92,330.46,156.61,311.54,151.25,297.94Z" style="fill:#455a64"></path><path d="M148.79,296.25a1.42,1.42,0,0,1-.13.38l-.42,1.06c-.37.91-.9,2.24-1.54,3.89-1.27,3.29-2.88,7.9-4.33,13.09s-2.43,10-3,13.46c-.3,1.73-.53,3.15-.68,4.12-.08.46-.14.83-.19,1.13a1.56,1.56,0,0,1-.08.38s0-.13,0-.39.07-.68.12-1.14c.11-1,.3-2.4.58-4.15a122.76,122.76,0,0,1,2.94-13.5,124.6,124.6,0,0,1,4.44-13.09c.66-1.64,1.23-3,1.65-3.85l.48-1A1.89,1.89,0,0,1,148.79,296.25Z" style="fill:#263238"></path><path d="M134.55,351.84a26.3,26.3,0,0,1-13.28-22.06c-.31-6.44,1.67-12.76,3.91-18.81a2.43,2.43,0,0,1,.92-1.36,2.34,2.34,0,0,1,2.2.34c5.86,3.34,9.42,9.71,11.31,16.19a32.68,32.68,0,0,1,1.33,13.31,22.15,22.15,0,0,1-6.39,12.39" style="fill:#455a64"></path><path d="M134.55,351.84a1.93,1.93,0,0,1,0-.39c0-.29,0-.66,0-1.11,0-1-.05-2.36-.13-4.09a110.87,110.87,0,0,0-1.49-13.41c-.9-5.19-2-9.85-2.79-13.21-.39-1.65-.72-3-1-4-.1-.44-.19-.8-.25-1.08a1.27,1.27,0,0,1-.06-.39,2.3,2.3,0,0,1,.13.37l.31,1.07c.27.93.63,2.28,1.07,4,.86,3.35,2,8,2.89,13.21a100.19,100.19,0,0,1,1.4,13.46c0,1.73,0,3.13,0,4.1,0,.45,0,.82,0,1.12A2.28,2.28,0,0,1,134.55,351.84Z" style="fill:#263238"></path><g style="opacity:0.30000000000000004"><path d="M134.55,351.84a26.3,26.3,0,0,1-13.28-22.06c-.31-6.44,1.67-12.76,3.91-18.81a2.43,2.43,0,0,1,.92-1.36,2.34,2.34,0,0,1,2.2.34c5.86,3.34,9.42,9.71,11.31,16.19a32.68,32.68,0,0,1,1.33,13.31,22.15,22.15,0,0,1-6.39,12.39"></path></g><path d="M143.66,400.86c7.94,1.74,14.48,7.35,22.15,10.07,5.07,1.81,10.81,2.44,14.86,6-1-2.45-3.28-4.09-5.52-5.49a99.22,99.22,0,0,0-20.08-9.58c-3.6-1.25-7.52-2.29-11.19-1.26" style="fill:#455a64"></path><path d="M143.88,400.59l.2-.07c.14,0,.34-.1.61-.16a11.35,11.35,0,0,1,2.38-.26,25.21,25.21,0,0,1,8.61,1.82,96.77,96.77,0,0,1,12,5.1c2.19,1.12,4.46,2.37,6.75,3.77a30.22,30.22,0,0,1,3.4,2.29,10,10,0,0,1,2.75,3.25c.08.17.16.35.23.52l.37.81-.69-.59a19.6,19.6,0,0,0-7.16-3.67c-2.51-.8-5-1.38-7.3-2.19a44.89,44.89,0,0,1-6.31-2.82c-1.91-1-3.65-2-5.26-2.89a55.92,55.92,0,0,0-7.81-3.7c-1-.33-1.72-.57-2.25-.7l-.59-.17-.19-.07s.07,0,.2,0l.6.13c.53.11,1.3.33,2.28.64a50.08,50.08,0,0,1,7.89,3.6c1.62.87,3.37,1.85,5.28,2.84a45.48,45.48,0,0,0,6.28,2.77c2.28.79,4.77,1.36,7.3,2.16a20.18,20.18,0,0,1,7.31,3.74l-.32.22-.22-.49a9.43,9.43,0,0,0-2.64-3.11,30.36,30.36,0,0,0-3.35-2.27c-2.28-1.4-4.53-2.65-6.72-3.77a100.06,100.06,0,0,0-12-5.17,26.19,26.19,0,0,0-8.52-1.93,13.29,13.29,0,0,0-2.37.19C144.16,400.54,143.88,400.61,143.88,400.59Z" style="fill:#263238"></path><path d="M132.17,407.94c-9.95-.16-20.43-8.64-30.33-9.14,10.36-3.35,25.2-.61,30.33,9.14" style="fill:#455a64"></path><path d="M136.06,384.07A32.44,32.44,0,0,1,152,383a96.42,96.42,0,0,1,15.53,4.23c-.51-3.46-3.3-6-5.93-8.35a41.12,41.12,0,0,0-6.23-4.79,13.79,13.79,0,0,0-7.48-2.11,11.8,11.8,0,0,0-8.26,4.16,13.7,13.7,0,0,0-3.53,7.95" style="fill:#455a64"></path><path d="M136.06,384.07s0-.07,0-.2,0-.33.06-.58a13.4,13.4,0,0,1,.48-2.2,14.44,14.44,0,0,1,4.64-6.73,11.33,11.33,0,0,1,11.66-1.67,22.9,22.9,0,0,1,6.16,3.78c1,.79,1.94,1.63,2.91,2.48a34.78,34.78,0,0,1,2.84,2.74,10.74,10.74,0,0,1,2.88,5.49l0,.31-.3-.1a122.93,122.93,0,0,0-12.2-3.61,43.39,43.39,0,0,0-10.1-1.16,30.12,30.12,0,0,0-6.7.8c-.77.18-1.36.35-1.76.48l-.45.13-.16,0s0,0,.14-.07l.45-.17a16.23,16.23,0,0,1,1.75-.54,28.3,28.3,0,0,1,6.73-.93,43,43,0,0,1,10.17,1.08A119.09,119.09,0,0,1,167.56,387l-.26.21a10.25,10.25,0,0,0-2.79-5.27,32.47,32.47,0,0,0-2.8-2.71c-1-.85-1.93-1.69-2.89-2.48a22.72,22.72,0,0,0-6-3.74,11.06,11.06,0,0,0-11.36,1.55A14.58,14.58,0,0,0,138.3,378a13.11,13.11,0,0,0-1.55,3.14,14.77,14.77,0,0,0-.55,2.16C136.11,383.8,136.07,384.07,136.06,384.07Z" style="fill:#263238"></path><path d="M115.64,373.08c-6.27-5.35-15.76-4.82-24-4.64a195.25,195.25,0,0,1,37.2,23.18C129.18,385.8,123.55,379.84,115.64,373.08Z" style="fill:#455a64"></path><g style="opacity:0.30000000000000004"><path d="M115.64,373.08c-6.27-5.35-15.76-4.82-24-4.64a195.25,195.25,0,0,1,37.2,23.18C129.18,385.8,123.55,379.84,115.64,373.08Z"></path></g><path d="M138.87,365.7a69.83,69.83,0,0,1,9.64-5.6c3.29-1.5,6.37-3.88,9.55-5.61,4.13-2.23,7.71-5.34,11.5-8.11s7.95-5.28,12.59-6a24.74,24.74,0,0,0-11.46.66,74,74,0,0,0-10.78,4.2c-4.89,2.2-9.86,4.45-13.85,8s-7.61,7.1-7.19,12.44" style="fill:#455a64"></path><path d="M138.87,365.7l0-.27c0-.18,0-.45,0-.79a9.85,9.85,0,0,1,.5-3,13.13,13.13,0,0,1,2.4-4.18,41.09,41.09,0,0,1,4.53-4.53,35.4,35.4,0,0,1,6.41-4.37c2.45-1.34,5.16-2.57,8-3.85a72.93,72.93,0,0,1,9.15-3.61,27.31,27.31,0,0,1,10.49-1.2c.65.07,1.29.18,1.89.29l1.11.22-1.12.17a25.27,25.27,0,0,0-9.32,3.8c-2.79,1.74-5.26,3.73-7.67,5.56a54,54,0,0,1-7.14,4.76c-2.34,1.28-4.39,2.71-6.35,3.87-1,.58-1.94,1.1-2.87,1.54s-1.8.83-2.6,1.25c-1.6.84-2.93,1.63-4,2.28l-2.48,1.55-.64.4-.23.13.21-.16.62-.44c.55-.37,1.37-.92,2.44-1.6s2.39-1.49,4-2.35,3.51-1.62,5.42-2.84,4-2.6,6.35-3.91a53.9,53.9,0,0,0,7.07-4.77c2.4-1.83,4.88-3.83,7.68-5.6a25.56,25.56,0,0,1,9.47-3.86v.39c-.58-.11-1.21-.22-1.86-.28a26.71,26.71,0,0,0-10.32,1.17,75.25,75.25,0,0,0-9.12,3.57c-2.85,1.28-5.57,2.49-8,3.81a35.28,35.28,0,0,0-6.38,4.29,42,42,0,0,0-4.54,4.46,13.36,13.36,0,0,0-2.43,4.09A11.84,11.84,0,0,0,138.87,365.7Z" style="fill:#263238"></path><path d="M165.63,407.94a1.3,1.3,0,0,1-.32-.14l-.87-.45c-.74-.4-1.82-1-3.18-1.67-.67-.35-1.41-.72-2.22-1.1s-1.66-.79-2.58-1.19a38.23,38.23,0,0,0-6.13-2.13,13.08,13.08,0,0,0-6.38-.16,16.47,16.47,0,0,0-2.7.81,13.18,13.18,0,0,0-2.19,1.12,14.16,14.16,0,0,0-2.74,2.26c-.58.62-.86,1-.88,1a1,1,0,0,1,.18-.29,7.6,7.6,0,0,1,.6-.78,12.61,12.61,0,0,1,2.71-2.38,13,13,0,0,1,2.2-1.19,17.39,17.39,0,0,1,2.75-.85,13.34,13.34,0,0,1,6.54.13,36.77,36.77,0,0,1,6.17,2.18c.92.41,1.79.81,2.58,1.22s1.55.78,2.21,1.15c1.34.71,2.4,1.33,3.13,1.77l.84.51A1.46,1.46,0,0,1,165.63,407.94Z" style="fill:#263238"></path><path d="M124.75,403s.23,0,.62.18a13.32,13.32,0,0,1,1.62.7,19.53,19.53,0,0,1,8.31,8,13.5,13.5,0,0,1,.77,1.59,2.28,2.28,0,0,1,.21.62c-.06,0-.43-.82-1.19-2.08a22,22,0,0,0-8.22-7.9C125.58,403.4,124.72,403.06,124.75,403Z" style="fill:#263238"></path><path d="M102.73,372.58a1.9,1.9,0,0,1,.43.13l1.19.42,1.88.7c.74.27,1.53.67,2.44,1.07a57.18,57.18,0,0,1,13,8.25,64.45,64.45,0,0,1,6,6,68.54,68.54,0,0,1,4.29,5.43c1.13,1.61,2,3,2.59,3.88l.68,1.07a2.14,2.14,0,0,1,.22.38,1.7,1.7,0,0,1-.28-.34c-.18-.23-.43-.58-.74-1-.63-.91-1.52-2.23-2.68-3.81s-2.61-3.42-4.32-5.36a67.91,67.91,0,0,0-6-5.9,61.12,61.12,0,0,0-12.83-8.3c-.89-.4-1.68-.82-2.4-1.11l-1.86-.75-1.17-.49A2.4,2.4,0,0,1,102.73,372.58Z" style="fill:#263238"></path><path d="M151,378.47a3,3,0,0,1-.8-.1l-.91-.17c-.36-.07-.77-.07-1.22-.11a12.3,12.3,0,0,0-9.95,3.65,13.85,13.85,0,0,0-2,2.48,20.43,20.43,0,0,0-1.37,2.61,3.05,3.05,0,0,1,.2-.78,11.56,11.56,0,0,1,.95-2,13.89,13.89,0,0,1,2-2.57,12.33,12.33,0,0,1,3.18-2.39,12.15,12.15,0,0,1,7-1.28,11.44,11.44,0,0,1,1.23.17l.91.23A4.42,4.42,0,0,1,151,378.47Z" style="fill:#263238"></path><path d="M161,347.45a2.8,2.8,0,0,1-.38.23l-1.11.6c-1,.52-2.35,1.29-4,2.29s-3.66,2.24-5.77,3.75a48,48,0,0,0-6.43,5.39,16.14,16.14,0,0,0-2.63,3.41c-.66,1.25-1.28,2.46-1.85,3.62A67.4,67.4,0,0,0,136,373a39.76,39.76,0,0,0-1.34,4.43c-.26,1.07-.35,1.67-.38,1.66a2.09,2.09,0,0,1,0-.44c0-.28.09-.71.2-1.24a33.11,33.11,0,0,1,1.25-4.49,61.33,61.33,0,0,1,2.7-6.35c.57-1.17,1.19-2.39,1.84-3.64a16.21,16.21,0,0,1,2.68-3.5,46.62,46.62,0,0,1,6.51-5.41c2.12-1.5,4.12-2.72,5.82-3.7s3.12-1.71,4.11-2.19l1.14-.54A2.1,2.1,0,0,1,161,347.45Z" style="fill:#263238"></path><path d="M133.09,377.58a3.41,3.41,0,0,1-.2-.84c-.12-.62-.26-1.39-.44-2.3a63.46,63.46,0,0,0-1.88-7.47,65.79,65.79,0,0,0-2.84-7.16c-.39-.84-.71-1.56-1-2.13a3.83,3.83,0,0,1-.32-.8,4.35,4.35,0,0,1,.44.74c.27.49.64,1.2,1.08,2.09a49,49,0,0,1,4.74,14.69c.16,1,.27,1.77.33,2.32A4.56,4.56,0,0,1,133.09,377.58Z" style="fill:#263238"></path><path d="M132.37,354.94a27,27,0,0,0-3.24-10.74,35.5,35.5,0,0,0-24-17.93l22.26,33.17,2.87,5.92A17,17,0,0,0,132.37,354.94Z" style="fill:#455a64"></path><rect x="112.54" y="420.3" width="51.74" height="9.17" style="fill:#FF725E"></rect><polygon points="116.41 427.65 123.41 461.6 152.13 461.6 160.42 427.65 116.41 427.65" style="fill:#FF725E"></polygon><path d="M164.26,429.48c0,.11-11.67.19-26.07.19s-26.07-.08-26.07-.19,11.67-.18,26.07-.18S164.26,429.38,164.26,429.48Z" style="fill:#263238"></path></g><g id="freepik--Mug--inject-3"><path d="M127.7,241.43a2.65,2.65,0,0,1,3.35-.08,4.58,4.58,0,0,1,1.67,3.73,10.22,10.22,0,0,1-3.81,7.54,10.42,10.42,0,0,1-4.1,2.11,1,1,0,0,0,.55,2,12.9,12.9,0,0,0,8-6.4c1.77-3.38,2.21-8.28-1.31-10.72a4.68,4.68,0,0,0-5.82.4c-1,.92.49,2.36,1.44,1.45Z" style="fill:#455a64"></path><path d="M107.46,234.69c-.48.17.31,16,3.4,27.06h14.69a85.73,85.73,0,0,0,2.87-16.12,91.7,91.7,0,0,0,0-10.94S118.08,231.05,107.46,234.69Z" style="fill:#455a64"></path><path d="M128.55,234.88l-.2.08-.6.18c-.26.08-.58.18-1,.27s-.8.21-1.28.3a31,31,0,0,1-3.36.55,36.34,36.34,0,0,1-4.17.21,39.91,39.91,0,0,1-4.16-.31c-1.27-.17-2.41-.39-3.35-.61s-1.71-.42-2.22-.59l-.6-.19a.6.6,0,0,1-.2-.08l.21,0,.61.16c.52.14,1.28.32,2.23.52s2.08.4,3.34.57a40.06,40.06,0,0,0,4.14.28,38.59,38.59,0,0,0,4.15-.18c1.27-.14,2.41-.32,3.36-.51.47-.08.9-.19,1.27-.27s.7-.16,1-.23l.6-.15Z" style="fill:#263238"></path><g style="opacity:0.30000000000000004"><path d="M126.85,235.27a30.22,30.22,0,0,0-17.79-.09,47.92,47.92,0,0,0,8.21,1.26A35.7,35.7,0,0,0,126.85,235.27Z"></path></g><path d="M126.6,257.54s0-.07,0-.2.06-.34.1-.57c.1-.52.24-1.23.4-2.09.33-1.77.77-4.21,1.1-6.94.16-1.36.27-2.66.34-3.84s.1-2.26.08-3.16c0-.44,0-.85,0-1.21s0-.66,0-.91l0-.58c0-.13,0-.2,0-.2s0,.06,0,.2,0,.34.06.57.06.56.08.92.05.76.05,1.21c0,.9,0,2,0,3.17s-.17,2.49-.33,3.86c-.33,2.73-.79,5.18-1.16,6.94-.18.88-.34,1.59-.46,2.08l-.14.56C126.63,257.48,126.61,257.55,126.6,257.54Z" style="fill:#263238"></path><path d="M124.31,245.5s-.07.15-.23.38-.4.57-.7,1c-.61.82-1.47,1.94-2.46,3.14s-1.93,2.26-2.62,3l-.83.88a1.87,1.87,0,0,1-.33.3,2,2,0,0,1,.27-.36l.78-.92c.67-.77,1.58-1.84,2.57-3s1.87-2.3,2.5-3.1l.76-.95A2,2,0,0,1,124.31,245.5Z" style="fill:#263238"></path><path d="M122.64,245.34a40.23,40.23,0,0,1-2.61,3.22,40.91,40.91,0,0,1-2.76,3.08s1.13-1.47,2.61-3.21S122.6,245.31,122.64,245.34Z" style="fill:#263238"></path><path d="M116.33,210.41s0,0,.06,0l.13.13a2.07,2.07,0,0,1,.39.61,3.45,3.45,0,0,1-.1,2.61,10.33,10.33,0,0,1-.87,1.62,11.2,11.2,0,0,0-1,1.82,3.41,3.41,0,0,0-.21,2.19,8.31,8.31,0,0,0,1.12,2.17,6.39,6.39,0,0,1,.57,1.14,2.66,2.66,0,0,1,.18,1.24,2.35,2.35,0,0,1-.45,1.13,7.05,7.05,0,0,1-.74.87c-.26.26-.52.51-.74.77a4.26,4.26,0,0,0-.56.82,4.51,4.51,0,0,0-.46,1.71,4.64,4.64,0,0,0,.56,2.51c.31.54.56.77.54.79a3.08,3.08,0,0,1-.61-.75,4.5,4.5,0,0,1-.63-2.55,4.34,4.34,0,0,1,.45-1.79,4.58,4.58,0,0,1,.57-.86c.23-.27.49-.52.74-.78a3.37,3.37,0,0,0,1.13-1.89,3.6,3.6,0,0,0-.73-2.25,9,9,0,0,1-1.14-2.22,3.64,3.64,0,0,1,.23-2.32,11,11,0,0,1,1-1.84,10.49,10.49,0,0,0,.87-1.58,3.46,3.46,0,0,0,.17-2.53A2.59,2.59,0,0,0,116.33,210.41Z" style="fill:#263238"></path><path d="M120.57,210.41l.05,0,.14.13a2.08,2.08,0,0,1,.38.61,3.45,3.45,0,0,1-.1,2.61,11.13,11.13,0,0,1-.86,1.62,12.05,12.05,0,0,0-1,1.82,3.48,3.48,0,0,0-.21,2.19,9,9,0,0,0,1.12,2.17,7.19,7.19,0,0,1,.58,1.14,2.65,2.65,0,0,1,.17,1.24,2.44,2.44,0,0,1-.44,1.13,6.34,6.34,0,0,1-.75.87c-.26.26-.51.51-.74.77a4.77,4.77,0,0,0-.56.82,4.6,4.6,0,0,0,.11,4.22,8.06,8.06,0,0,0,.54.79,3.08,3.08,0,0,1-.61-.75,4.57,4.57,0,0,1-.64-2.55,4.18,4.18,0,0,1,1-2.65c.23-.27.48-.52.74-.78a3.3,3.3,0,0,0,1.12-1.89,3.65,3.65,0,0,0-.72-2.25,9,9,0,0,1-1.14-2.22,3.64,3.64,0,0,1,.23-2.32,11,11,0,0,1,1-1.84,10.49,10.49,0,0,0,.87-1.58,3.45,3.45,0,0,0,.16-2.53A2.71,2.71,0,0,0,120.57,210.41Z" style="fill:#263238"></path></g><g id="freepik--Shelf--inject-3"><rect x="91.39" y="65.47" width="67.58" height="17.6" rx="1.83" style="fill:#263238"></rect><rect x="121.81" y="69.68" width="29.97" height="9.94" rx="0.71" style="fill:#fff"></rect><path d="M110.4,74.64a3.6,3.6,0,1,0-3.6,3.6A3.6,3.6,0,0,0,110.4,74.64Z" style="fill:#263238"></path><path d="M106.8,78.85a4.21,4.21,0,1,1,4.2-4.21A4.21,4.21,0,0,1,106.8,78.85Zm0-7.2a3,3,0,1,0,3,3A3,3,0,0,0,106.8,71.65Z" style="fill:#e0e0e0"></path><path d="M124.94,71.37a17.38,17.38,0,0,1,.16,3.33,17.45,17.45,0,0,1-.16,3.34,19.09,19.09,0,0,1-.15-3.34A19,19,0,0,1,124.94,71.37Z" style="fill:#e0e0e0"></path><path d="M127.86,71.37A17.38,17.38,0,0,1,128,74.7a17.45,17.45,0,0,1-.16,3.34,17.45,17.45,0,0,1-.16-3.34A17.38,17.38,0,0,1,127.86,71.37Z" style="fill:#e0e0e0"></path><path d="M130.77,71.37a17.38,17.38,0,0,1,.16,3.33,17.45,17.45,0,0,1-.16,3.34,19.09,19.09,0,0,1-.15-3.34A19,19,0,0,1,130.77,71.37Z" style="fill:#e0e0e0"></path><path d="M133.69,71.37a17.38,17.38,0,0,1,.16,3.33,17.45,17.45,0,0,1-.16,3.34,17.45,17.45,0,0,1-.16-3.34A17.38,17.38,0,0,1,133.69,71.37Z" style="fill:#e0e0e0"></path><path d="M136.61,71.37a19,19,0,0,1,.15,3.33,19.09,19.09,0,0,1-.15,3.34,17.45,17.45,0,0,1-.16-3.34A17.38,17.38,0,0,1,136.61,71.37Z" style="fill:#e0e0e0"></path><path d="M139.52,71.37a17.38,17.38,0,0,1,.16,3.33,17.45,17.45,0,0,1-.16,3.34,17.45,17.45,0,0,1-.16-3.34A17.38,17.38,0,0,1,139.52,71.37Z" style="fill:#e0e0e0"></path><path d="M142.44,71.37a19,19,0,0,1,.15,3.33,19.09,19.09,0,0,1-.15,3.34,17.45,17.45,0,0,1-.16-3.34A17.38,17.38,0,0,1,142.44,71.37Z" style="fill:#e0e0e0"></path><path d="M145.35,71.37a17.38,17.38,0,0,1,.16,3.33,17.45,17.45,0,0,1-.16,3.34,17.45,17.45,0,0,1-.16-3.34A17.38,17.38,0,0,1,145.35,71.37Z" style="fill:#e0e0e0"></path><path d="M148.27,71.37a19,19,0,0,1,.15,3.33,19.09,19.09,0,0,1-.15,3.34,17.45,17.45,0,0,1-.16-3.34A17.38,17.38,0,0,1,148.27,71.37Z" style="fill:#e0e0e0"></path><rect x="91.39" y="48.53" width="67.58" height="17.6" rx="1.38" style="fill:#455a64"></rect><rect x="121.81" y="52.73" width="29.97" height="9.94" rx="0.71" style="fill:#fff"></rect><path d="M110.4,57.7a3.6,3.6,0,1,0-3.6,3.6A3.6,3.6,0,0,0,110.4,57.7Z" style="fill:#263238"></path><path d="M106.8,61.9a4.2,4.2,0,1,1,4.2-4.2A4.21,4.21,0,0,1,106.8,61.9Zm0-7.2a3,3,0,1,0,3,3A3,3,0,0,0,106.8,54.7Z" style="fill:#e0e0e0"></path><path d="M124.94,54.43a17.3,17.3,0,0,1,.16,3.33,17.3,17.3,0,0,1-.16,3.33,18.93,18.93,0,0,1-.15-3.33A18.93,18.93,0,0,1,124.94,54.43Z" style="fill:#e0e0e0"></path><path d="M127.86,54.43a17.3,17.3,0,0,1,.16,3.33,17.3,17.3,0,0,1-.16,3.33,17.3,17.3,0,0,1-.16-3.33A17.3,17.3,0,0,1,127.86,54.43Z" style="fill:#e0e0e0"></path><path d="M130.77,54.43a17.3,17.3,0,0,1,.16,3.33,17.3,17.3,0,0,1-.16,3.33,18.93,18.93,0,0,1-.15-3.33A18.93,18.93,0,0,1,130.77,54.43Z" style="fill:#e0e0e0"></path><path d="M133.69,54.43a17.3,17.3,0,0,1,.16,3.33,17.3,17.3,0,0,1-.16,3.33,17.3,17.3,0,0,1-.16-3.33A17.3,17.3,0,0,1,133.69,54.43Z" style="fill:#e0e0e0"></path><path d="M136.61,54.43a18.93,18.93,0,0,1,.15,3.33,18.93,18.93,0,0,1-.15,3.33,17.3,17.3,0,0,1-.16-3.33A17.3,17.3,0,0,1,136.61,54.43Z" style="fill:#e0e0e0"></path><path d="M139.52,54.43a17.3,17.3,0,0,1,.16,3.33,17.3,17.3,0,0,1-.16,3.33,17.3,17.3,0,0,1-.16-3.33A17.3,17.3,0,0,1,139.52,54.43Z" style="fill:#e0e0e0"></path><path d="M142.44,54.43a18.93,18.93,0,0,1,.15,3.33,18.93,18.93,0,0,1-.15,3.33,17.3,17.3,0,0,1-.16-3.33A17.3,17.3,0,0,1,142.44,54.43Z" style="fill:#e0e0e0"></path><path d="M145.35,54.43a17.3,17.3,0,0,1,.16,3.33,17.3,17.3,0,0,1-.16,3.33,17.3,17.3,0,0,1-.16-3.33A17.3,17.3,0,0,1,145.35,54.43Z" style="fill:#e0e0e0"></path><path d="M148.27,54.43a18.93,18.93,0,0,1,.15,3.33,18.93,18.93,0,0,1-.15,3.33,17.3,17.3,0,0,1-.16-3.33A17.3,17.3,0,0,1,148.27,54.43Z" style="fill:#e0e0e0"></path><rect x="91.39" y="83.17" width="67.58" height="17.6" rx="1.71" style="fill:#e0e0e0"></rect><rect x="121.81" y="87.37" width="29.97" height="9.94" rx="0.71" style="fill:#fff"></rect><path d="M110.4,92.34a3.6,3.6,0,1,0-3.6,3.59A3.6,3.6,0,0,0,110.4,92.34Z" style="fill:#263238"></path><path d="M106.8,96.54a4.2,4.2,0,1,1,4.2-4.2A4.21,4.21,0,0,1,106.8,96.54Zm0-7.2a3,3,0,1,0,3,3A3,3,0,0,0,106.8,89.34Z" style="fill:#f5f5f5"></path><path d="M124.94,89.07a17.3,17.3,0,0,1,.16,3.33,17.3,17.3,0,0,1-.16,3.33,18.93,18.93,0,0,1-.15-3.33A18.93,18.93,0,0,1,124.94,89.07Z" style="fill:#e0e0e0"></path><path d="M127.86,89.07A17.3,17.3,0,0,1,128,92.4a17.3,17.3,0,0,1-.16,3.33,17.3,17.3,0,0,1-.16-3.33A17.3,17.3,0,0,1,127.86,89.07Z" style="fill:#e0e0e0"></path><path d="M130.77,89.07a17.3,17.3,0,0,1,.16,3.33,17.3,17.3,0,0,1-.16,3.33,18.93,18.93,0,0,1-.15-3.33A18.93,18.93,0,0,1,130.77,89.07Z" style="fill:#e0e0e0"></path><path d="M133.69,89.07a17.3,17.3,0,0,1,.16,3.33,17.3,17.3,0,0,1-.16,3.33,17.3,17.3,0,0,1-.16-3.33A17.3,17.3,0,0,1,133.69,89.07Z" style="fill:#e0e0e0"></path><path d="M136.61,89.07a18.93,18.93,0,0,1,.15,3.33,18.93,18.93,0,0,1-.15,3.33,17.3,17.3,0,0,1-.16-3.33A17.3,17.3,0,0,1,136.61,89.07Z" style="fill:#e0e0e0"></path><path d="M139.52,89.07a17.3,17.3,0,0,1,.16,3.33,17.3,17.3,0,0,1-.16,3.33,17.3,17.3,0,0,1-.16-3.33A17.3,17.3,0,0,1,139.52,89.07Z" style="fill:#e0e0e0"></path><path d="M142.44,89.07a18.93,18.93,0,0,1,.15,3.33,18.93,18.93,0,0,1-.15,3.33,17.3,17.3,0,0,1-.16-3.33A17.3,17.3,0,0,1,142.44,89.07Z" style="fill:#e0e0e0"></path><path d="M145.35,89.07a17.3,17.3,0,0,1,.16,3.33,17.3,17.3,0,0,1-.16,3.33,17.3,17.3,0,0,1-.16-3.33A17.3,17.3,0,0,1,145.35,89.07Z" style="fill:#e0e0e0"></path><path d="M148.27,89.07a18.93,18.93,0,0,1,.15,3.33,18.93,18.93,0,0,1-.15,3.33,17.3,17.3,0,0,1-.16-3.33A17.3,17.3,0,0,1,148.27,89.07Z" style="fill:#e0e0e0"></path><rect x="47.58" y="59.34" width="67.58" height="17.6" rx="1.38" transform="translate(159.63 -3.55) rotate(97.57)" style="fill:#FF725E"></rect><rect x="64.49" y="74.63" width="29.97" height="9.94" rx="0.71" transform="translate(168.85 11.3) rotate(97.57)" style="fill:#fff"></rect><path d="M83,53.43a3.6,3.6,0,1,0-3.09-4A3.6,3.6,0,0,0,83,53.43Z" style="fill:#263238"></path><path d="M79.26,49.31A4.2,4.2,0,1,1,82.87,54,4.2,4.2,0,0,1,79.26,49.31Zm7.13.95A3,3,0,1,0,83,52.83,3,3,0,0,0,86.39,50.26Z" style="fill:#e0e0e0"></path><path d="M84.28,68.28A17.55,17.55,0,0,1,81,68a17,17,0,0,1-3.28-.6,18.12,18.12,0,0,1,3.33.29A18.51,18.51,0,0,1,84.28,68.28Z" style="fill:#e0e0e0"></path><path d="M83.89,71.17a17.43,17.43,0,0,1-3.32-.28,17,17,0,0,1-3.28-.6,18,18,0,0,1,3.32.29A18.51,18.51,0,0,1,83.89,71.17Z" style="fill:#e0e0e0"></path><path d="M83.51,74.06a17.43,17.43,0,0,1-3.32-.28,17,17,0,0,1-3.29-.6,18.07,18.07,0,0,1,3.33.29A18.51,18.51,0,0,1,83.51,74.06Z" style="fill:#e0e0e0"></path><path d="M83.12,77a17.47,17.47,0,0,1-3.32-.28,17,17,0,0,1-3.28-.6,18,18,0,0,1,3.32.29A18,18,0,0,1,83.12,77Z" style="fill:#e0e0e0"></path><path d="M82.74,79.84a17.43,17.43,0,0,1-3.32-.28,16.6,16.6,0,0,1-3.28-.6,18,18,0,0,1,3.32.29A18.51,18.51,0,0,1,82.74,79.84Z" style="fill:#e0e0e0"></path><path d="M82.36,82.73A17.51,17.51,0,0,1,79,82.45a17,17,0,0,1-3.28-.6,18,18,0,0,1,3.32.29A18.51,18.51,0,0,1,82.36,82.73Z" style="fill:#e0e0e0"></path><path d="M82,85.62a17.43,17.43,0,0,1-3.32-.28,17,17,0,0,1-3.28-.6,18,18,0,0,1,3.32.29A18.51,18.51,0,0,1,82,85.62Z" style="fill:#e0e0e0"></path><path d="M81.59,88.51a17.43,17.43,0,0,1-3.32-.28,17,17,0,0,1-3.29-.6,18.07,18.07,0,0,1,3.33.29A18.51,18.51,0,0,1,81.59,88.51Z" style="fill:#e0e0e0"></path><path d="M81.2,91.4a17.43,17.43,0,0,1-3.32-.28,17,17,0,0,1-3.28-.6,18,18,0,0,1,3.32.29A18,18,0,0,1,81.2,91.4Z" style="fill:#e0e0e0"></path><rect x="59.33" y="99.89" width="105.55" height="6.96" style="fill:#455a64"></rect></g><g id="freepik--speech-bubble--inject-3"><path d="M368.16,86.78A32.2,32.2,0,1,0,315.7,117.5a5.6,5.6,0,0,0,.49.36l0,0A37.36,37.36,0,0,0,342,124.37a28.93,28.93,0,0,0,8.52-2.38A32.26,32.26,0,0,0,368.16,86.78Z" style="fill:#fff"></path><g style="opacity:0.30000000000000004"><polygon points="336.7 104.62 336.7 104.63 336.71 104.63 336.7 104.62" style="fill:#fff"></polygon><polygon points="336.69 104.62 336.7 104.63 336.69 104.62 336.69 104.62" style="fill:#fff"></polygon><polygon points="336.67 104.6 336.66 104.61 336.68 104.62 336.67 104.6" style="fill:#fff"></polygon><polygon points="336.65 104.59 336.65 104.59 336.65 104.59 336.65 104.59" style="fill:#fff"></polygon><polygon points="336.66 104.56 336.65 104.56 336.66 104.56 336.66 104.56" style="fill:#fff"></polygon><polygon points="336.7 104.61 336.7 104.61 336.7 104.62 336.7 104.61" style="fill:#fff"></polygon><polygon points="336.64 104.59 336.64 104.58 336.57 104.54 336.63 104.6 336.64 104.59" style="fill:#fff"></polygon><polygon points="336.64 104.58 336.64 104.59 336.65 104.59 336.64 104.58" style="fill:#fff"></polygon><polygon points="336.7 104.6 336.69 104.6 336.69 104.61 336.7 104.6" style="fill:#fff"></polygon><polygon points="336.69 104.61 336.68 104.61 336.69 104.62 336.69 104.61" style="fill:#fff"></polygon><polygon points="336.68 104.67 336.68 104.67 336.68 104.67 336.68 104.67" style="fill:#fff"></polygon><polygon points="336.64 104.61 336.64 104.62 336.63 104.61 336.63 104.63 336.63 104.63 336.63 104.63 336.65 104.63 336.64 104.62 336.65 104.62 336.65 104.62 336.65 104.61 336.66 104.61 336.63 104.6 336.64 104.61" style="fill:#fff"></polygon><polygon points="336.62 104.63 336.63 104.61 336.63 104.6 336.53 104.62 336.62 104.63" style="fill:#fff"></polygon><polygon points="336.7 104.64 336.69 104.64 336.69 104.64 336.7 104.64" style="fill:#fff"></polygon><polygon points="336.62 104.69 336.59 104.85 336.66 104.71 336.66 104.65 336.62 104.69" style="fill:#fff"></polygon><polygon points="336.69 104.64 336.68 104.64 336.69 104.64 336.69 104.64" style="fill:#fff"></polygon></g><path d="M344,61.63l-3.63,21.19.09,0-3.73,21.54,9.58-19.66,0,0,8.78-18.08A32.53,32.53,0,0,0,344,61.63Z" style="fill:#FF725E"></path><polygon points="336.68 104.64 336.69 104.64 336.69 104.64 336.68 104.64" style="fill:#FF725E"></polygon><path d="M304.42,94.22a31.58,31.58,0,0,0,1.62,9c.07.21.15.4.23.6l8.36.22h0l22,.55Z" style="fill:#FF725E"></path><polygon points="336.63 104.61 336.63 104.6 336.53 104.62 336.62 104.63 336.63 104.61" style="fill:#FF725E"></polygon><path d="M368.59,96.06l-31.76,8.54-.08,0,0,0-.06,0h0l0-.11-.06.07v0h0v0h0v0h0l0,0v0l-.06,0L311.11,73.43a32.94,32.94,0,0,0-5.25,10.2l12.59,8.57h0l18.08,12.31-.08,0,.17.12h0v0h0l.07.06,0-.07h0v0h.1l-.09,0h.21l-.09,0,29.42.74A32.19,32.19,0,0,0,368.59,96.06Z" style="fill:#FF725E"></path><polygon points="336.59 104.85 336.66 104.71 336.66 104.65 336.62 104.69 336.59 104.85" style="fill:#FF725E"></polygon><polygon points="336.64 104.61 336.64 104.62 336.63 104.61 336.63 104.63 336.63 104.63 336.63 104.63 336.65 104.63 336.64 104.62 336.65 104.62 336.65 104.62 336.65 104.61 336.66 104.61 336.63 104.6 336.64 104.61" style="fill:#FF725E"></polygon><path d="M320,65.36l8,18.92h0l8.59,20.24-2.53-21.85h0L331.6,61.15a30.34,30.34,0,0,0-3.93.86A31.49,31.49,0,0,0,320,65.36Z" style="fill:#FF725E"></path><polygon points="336.69 104.64 336.69 104.64 336.7 104.64 336.69 104.64" style="fill:#FF725E"></polygon><path d="M367.89,85.59a32.34,32.34,0,0,0-4.47-10.37l-11.89,13,0,0-14.84,16.25Z" style="fill:#FF725E"></path><polygon points="336.68 104.67 336.68 104.67 336.68 104.67 336.68 104.67" style="fill:#FF725E"></polygon><path d="M358.37,107c0,.14-9.71.26-21.7.26S315,107.18,315,107s9.72-.26,21.7-.26S358.37,106.89,358.37,107Z" style="fill:#263238"></path><path d="M347.63,110.27c0,.15-5.1.26-11.4.26s-11.4-.11-11.4-.26,5.1-.26,11.4-.26S347.63,110.13,347.63,110.27Z" style="fill:#263238"></path><path d="M341.89,112.77a29.32,29.32,0,0,1-7.94,0,30.44,30.44,0,0,1,7.94,0Z" style="fill:#263238"></path><g style="opacity:0.5"><path d="M344,61.63l-3.63,21.19.09,0-3.73,21.54,9.58-19.66,0,0,8.78-18.08A32.53,32.53,0,0,0,344,61.63Z" style="fill:#fff"></path><polygon points="336.68 104.64 336.69 104.64 336.69 104.64 336.68 104.64" style="fill:#fff"></polygon><path d="M304.42,94.22a31.58,31.58,0,0,0,1.62,9c.07.21.15.4.23.6l8.36.22h0l22,.55Z" style="fill:#fff"></path><polygon points="336.63 104.61 336.63 104.6 336.53 104.62 336.62 104.63 336.63 104.61" style="fill:#fff"></polygon><path d="M368.59,96.06l-31.76,8.54-.08,0,0,0-.06,0h0l0-.11-.06.07v0h0v0h0v0h0l0,0v0l-.06,0L311.11,73.43a32.94,32.94,0,0,0-5.25,10.2l12.59,8.57h0l18.08,12.31-.08,0,.17.12h0v0h0l.07.06,0-.07h0v0h.1l-.09,0h.21l-.09,0,29.42.74A32.19,32.19,0,0,0,368.59,96.06Z" style="fill:#fff"></path><polygon points="336.59 104.85 336.66 104.71 336.66 104.65 336.62 104.69 336.59 104.85" style="fill:#fff"></polygon><polygon points="336.64 104.61 336.64 104.62 336.63 104.61 336.63 104.63 336.63 104.63 336.63 104.63 336.65 104.63 336.64 104.62 336.65 104.62 336.65 104.62 336.65 104.61 336.66 104.61 336.63 104.6 336.64 104.61" style="fill:#fff"></polygon><path d="M320,65.36l8,18.92h0l8.59,20.24-2.53-21.85h0L331.6,61.15a30.34,30.34,0,0,0-3.93.86A31.49,31.49,0,0,0,320,65.36Z" style="fill:#fff"></path><polygon points="336.69 104.64 336.69 104.64 336.7 104.64 336.69 104.64" style="fill:#fff"></polygon><path d="M367.89,85.59a32.34,32.34,0,0,0-4.47-10.37l-11.89,13,0,0-14.84,16.25Z" style="fill:#fff"></path><polygon points="336.68 104.67 336.68 104.67 336.68 104.67 336.68 104.67" style="fill:#fff"></polygon></g><path d="M336.58,91a13.71,13.71,0,0,0-13.71,13.72H350.3A13.72,13.72,0,0,0,336.58,91Z" style="fill:#FF725E"></path><path d="M366.58,104.57c0,.15-13.35.26-29.81.26s-29.8-.11-29.8-.26,13.34-.26,29.8-.26S366.58,104.43,366.58,104.57Z" style="fill:#263238"></path><path d="M368.16,86.78s0,.17.11.51.15.86.26,1.5a32.27,32.27,0,0,1,.29,5.88,32.79,32.79,0,0,1-1.82,9.12,32.33,32.33,0,0,1-6.21,10.62,26.52,26.52,0,0,1-2.47,2.51,30,30,0,0,1-2.84,2.34c-.5.38-1.05.7-1.58,1.06a14.47,14.47,0,0,1-1.66,1l-1.75.93c-.6.28-1.22.54-1.85.77a34.18,34.18,0,0,1-17,1.4,39,39,0,0,1-13.21-4.83c-.71-.4-1.39-.85-2.08-1.3a13.91,13.91,0,0,1-1.92-1.58,32,32,0,0,1-9.71-17.64,30.8,30.8,0,0,1-.22-10.35,34.6,34.6,0,0,1,1.07-5l.84-2.37a24.23,24.23,0,0,1,1-2.28,32,32,0,0,1,5.42-8l.79-.88.87-.81c.59-.52,1.13-1.09,1.74-1.57A32.94,32.94,0,0,1,320,65.14a31.62,31.62,0,0,1,16.41-4.57,28.72,28.72,0,0,1,4,.23c1.3.12,2.54.45,3.78.66,1.2.37,2.39.68,3.51,1.09l1.65.69a11.92,11.92,0,0,1,1.58.72,31.16,31.16,0,0,1,12.8,11.54,19.75,19.75,0,0,1,1.15,1.91c.32.64.61,1.25.9,1.82l.4.84c.11.28.21.56.31.83l.54,1.49a14.71,14.71,0,0,1,.69,2.39c.16.64.27,1.13.36,1.49a4.57,4.57,0,0,1,.1.51s-.06-.17-.15-.5-.23-.84-.41-1.47a17.32,17.32,0,0,0-.73-2.37c-.18-.46-.37-1-.57-1.48l-.31-.81-.42-.83c-.28-.57-.59-1.17-.91-1.8a19.68,19.68,0,0,0-1.16-1.89,34.49,34.49,0,0,0-3-4,32.73,32.73,0,0,0-9.73-7.33,13.16,13.16,0,0,0-1.57-.71l-1.63-.66c-1.11-.41-2.29-.71-3.48-1.07-1.22-.2-2.44-.52-3.72-.64a28.28,28.28,0,0,0-3.92-.2,31.18,31.18,0,0,0-16.17,4.54,32,32,0,0,0-3.73,2.6c-.6.47-1.13,1-1.71,1.55l-.86.79-.78.88a31.48,31.48,0,0,0-5.32,7.93c-.32.75-.73,1.46-1,2.25s-.54,1.55-.82,2.33A36.66,36.66,0,0,0,305,88.77,30.05,30.05,0,0,0,305.23,99a31.45,31.45,0,0,0,9.54,17.37,13.37,13.37,0,0,0,1.86,1.53c.67.45,1.35.88,2,1.28a36,36,0,0,0,4.24,2.16,37.5,37.5,0,0,0,8.79,2.63,33.77,33.77,0,0,0,16.79-1.32c.62-.23,1.23-.48,1.82-.76l1.73-.9a13.35,13.35,0,0,0,1.64-1c.53-.35,1.07-.66,1.57-1a33.79,33.79,0,0,0,2.81-2.3,28.64,28.64,0,0,0,2.46-2.47,32.41,32.41,0,0,0,6.21-10.48,33.62,33.62,0,0,0,1.89-9,35,35,0,0,0-.19-5.85l-.21-1.51C368.17,87,368.16,86.78,368.16,86.78Z" style="fill:#263238"></path><path d="M302.81,116.15a4,4,0,1,1-4-4A4,4,0,0,1,302.81,116.15Z" style="fill:#fff"></path><path d="M302.81,116.15s0-.35-.21-.94a3.92,3.92,0,0,0-1.44-2.08,3.84,3.84,0,0,0-3.59-.51,3.78,3.78,0,1,0,3.59,6.56,4,4,0,0,0,1.44-2.08c.17-.6.17-.95.21-.95a.9.9,0,0,1,0,.26,3.36,3.36,0,0,1-.08.73,3.9,3.9,0,0,1-1.43,2.27,4.07,4.07,0,0,1-3.89.63,4.13,4.13,0,0,1,0-7.78,4.07,4.07,0,0,1,3.89.63,3.89,3.89,0,0,1,1.43,2.28,3.24,3.24,0,0,1,.08.73A.79.79,0,0,1,302.81,116.15Z" style="fill:#263238"></path></g><g id="freepik--Character--inject-3"><path d="M156,202.25s4.35,38.5,7,46.69,8.12,15.3,15.15,14.29c6-.87,10.14-4.67,14.62-13.42,3.82-7.47,11.64-27.92,11.64-27.92l-9.27-22.16-17.84,32.82-8.72-33.36Z" style="fill:#ae7461"></path><path d="M181.41,249.37c-.09,0,.12-1,.2-2.58a19.89,19.89,0,0,0-.68-6.12,19.59,19.59,0,0,0-2.57-5.6c-.89-1.31-1.57-2-1.5-2.1a7.61,7.61,0,0,1,1.8,1.89,17,17,0,0,1,2.78,5.67,17.24,17.24,0,0,1,.54,6.29A8,8,0,0,1,181.41,249.37Z" style="fill:#6f4439"></path><path d="M138.06,182.65l1,3.26s3.18,5.66,4.38,6.42,5.09,1.8,6.39,3.23,3.33,5.1,5.48,6.95l4.37,3.78,9.31-5.83a22.84,22.84,0,0,0,.88-6c-.1-2.71-2.53-14.23-2.53-14.23a18.26,18.26,0,0,0-2.92-3.92c-1.43-1.26-1.77-1.44-2.21.8s0,2.72.65,4.8,1.27,4.32.38,5.15-4.16.78-4.16.78L156.77,185l-.55-4.65,2.18-2.59s4.88-.11,4.67-3l-5.92-.12L152.44,178l-.73,1.82-.29-5.55s1.48-5.67-1.82-5.87l-.38.06-1.24,5.7-.41,5s-1.44-8.57-4.82-7.28l-.61.63s2.29,9,2.6,10.57,3,5.76,3,5.76l-2.37-.3-2.76-2.81S141,178.79,138.06,182.65Z" style="fill:#ae7461"></path><path d="M154.43,193c-.12.1-1.13-1.05-2.66-2.09s-3-1.58-2.91-1.72a8.13,8.13,0,0,1,5.57,3.81Z" style="fill:#6f4439"></path><path d="M164.79,194.77a15.46,15.46,0,0,0-5.14-1.17,15.26,15.26,0,0,0-5.15,1.11,3.39,3.39,0,0,1,1.35-.86,9.53,9.53,0,0,1,7.6,0A3.55,3.55,0,0,1,164.79,194.77Z" style="fill:#6f4439"></path><path d="M152.37,186.7a6.44,6.44,0,0,1-2.64-2.56,6.37,6.37,0,0,1-1.31-3.44c.14,0,.65,1.51,1.75,3.15S152.47,186.59,152.37,186.7Z" style="fill:#6f4439"></path><path d="M331.39,198.43s-4.35,38.5-7,46.7-8.12,15.3-15.15,14.29c-6-.87-10.14-4.67-14.61-13.42-3.83-7.47-11.65-27.92-11.65-27.92l9.27-22.16,17.84,32.82,8.72-33.36Z" style="fill:#ae7461"></path><path d="M306,245.55a7.82,7.82,0,0,1-.61-2.51,18.53,18.53,0,0,1,.27-6.26,15.71,15.71,0,0,1,2.52-5.73,11.21,11.21,0,0,1,1.23-1.45c.33-.31.51-.47.54-.44s-.61.78-1.46,2.1a17.44,17.44,0,0,0-2.32,5.63C305.11,241.62,306.19,245.55,306,245.55Z" style="fill:#6f4439"></path><path d="M349.34,178.84l-1,3.26s-3.18,5.66-4.38,6.41-5.09,1.8-6.39,3.24-3.33,5.1-5.48,6.95-4.37,3.77-4.37,3.77l-9.31-5.82a23.3,23.3,0,0,1-.88-6c.1-2.71,2.53-14.24,2.53-14.24a18.3,18.3,0,0,1,2.92-3.91c1.43-1.26,1.77-1.44,2.21.8s0,2.72-.64,4.8-1.27,4.32-.39,5.15,4.16.78,4.16.78l2.36-2.76.54-4.66L329,174s-4.88-.11-4.67-3l5.92-.12,4.71,3.35.73,1.82.29-5.55s-1.48-5.67,1.82-5.87l.38.06,1.24,5.7.41,5s1.44-8.57,4.82-7.28l.61.63s-2.28,9-2.6,10.57-3,5.76-3,5.76l2.38-.3,2.75-2.82S346.42,175,349.34,178.84Z" style="fill:#ae7461"></path><path d="M333,189.22a8,8,0,0,1,5.58-3.81c0,.14-1.39.67-2.91,1.72S333.09,189.32,333,189.22Z" style="fill:#6f4439"></path><path d="M322.61,191a3.55,3.55,0,0,1,1.34-.88,9.57,9.57,0,0,1,3.8-.82,9.36,9.36,0,0,1,3.8.78,3.39,3.39,0,0,1,1.35.86,15.26,15.26,0,0,0-5.15-1.11A15.46,15.46,0,0,0,322.61,191Z" style="fill:#6f4439"></path><path d="M335,182.89c-.1-.12,1.12-1.19,2.2-2.85s1.61-3.19,1.76-3.15a6.54,6.54,0,0,1-1.32,3.44A6.44,6.44,0,0,1,335,182.89Z" style="fill:#6f4439"></path><polygon points="287.4 354.14 305.56 461.17 300.19 461.17 275.39 354.14 287.4 354.14" style="fill:#e0e0e0"></polygon><polygon points="215.49 354.14 197.34 461.6 202.7 461.6 227.5 354.14 215.49 354.14" style="fill:#e0e0e0"></polygon><rect x="199.76" y="339.81" width="93.63" height="14.34" rx="6.12" style="fill:#455a64"></rect><path d="M251.23,104.89c3.38-3.6,11.57-2.93,13.48-.49a6.24,6.24,0,0,1,8.14,2.85l8.7,2a9.17,9.17,0,0,1,4.16,1.76c1.13,1,1.64,2.9.67,4.09,3.06.84,4.2,5.44,1.88,7.61a3.31,3.31,0,0,1-.56,4.78,33.14,33.14,0,0,1,5.47,9.8,6.77,6.77,0,0,1,.36,4.61c-.57,1.46-2.53,2.45-3.79,1.51a3.86,3.86,0,0,1,.12,4.18c1.48.06,1.88,2.35.85,3.41s-2.68,1.14-4.16,1.08-3.07-.16-4.3.67a1.35,1.35,0,0,0,.47.94A6.08,6.08,0,0,1,284,162l-.5.67c-.87,1.2-3,2.28-4.33,2.95-3.37,1.68-5.35,1.32-9.09,1.8,1,2.42-5.15,7.65-12,2.31a133.65,133.65,0,0,1-38.17,4.57c-2,0-4.49-.34-5.37-2.19a5,5,0,0,1-4.64-1.6,15,15,0,0,1-2.67-4.36,8.89,8.89,0,0,1-6.28-8.11,11,11,0,0,1-4-7.88,6.45,6.45,0,0,1-3.56-8.77,39,39,0,0,1,4.43-12c-2.33-.54-3.16-3.71-2.17-5.89s3.15-3.55,5.19-4.81c-1.76.44-3.25-1.78-2.8-3.53s2.05-3,3.61-3.86a33,33,0,0,1,7.31-3.12c.88-3.07,4.87-6.51,7.77-7.83,11.72-5.33,19.9-6.59,34.56,4.5" style="fill:#263238"></path><path d="M218.48,126.56c1.05-8,7-17.49,15-16.1l24.55,8a4.71,4.71,0,0,1,3.89,5.06l-6.77,53.36c-.58,7-3.71,12.67-10.65,13.5h0a14.73,14.73,0,0,1-16.44-15c.09-3.68.15-6.45.15-6.43s-10.14-2.4-11.36-15.93C216.24,146.33,217.31,135.44,218.48,126.56Z" style="fill:#ae7461"></path><path d="M227,137.19c-.2-.24-1.57.61-3.42.45s-3.12-1.2-3.34-1,.08.52.63,1a4.7,4.7,0,0,0,2.65,1.07,4.49,4.49,0,0,0,2.74-.64C226.85,137.68,227.07,137.3,227,137.19Z" style="fill:#263238"></path><path d="M244.79,138c-.21-.22-1.51.75-3.36.75s-3.21-.92-3.42-.69.12.5.72.93a4.68,4.68,0,0,0,2.73.83,4.6,4.6,0,0,0,2.68-.87C244.7,138.55,244.9,138.14,244.79,138Z" style="fill:#263238"></path><path d="M231,147.22a12,12,0,0,0-3-.75c-.47-.08-.91-.2-1-.53a2.46,2.46,0,0,1,.41-1.38l1.64-3.49c2.29-5,4-9.09,3.77-9.18s-2.21,3.87-4.5,8.85c-.55,1.23-1.08,2.4-1.58,3.53a2.71,2.71,0,0,0-.37,1.83,1.17,1.17,0,0,0,.73.74,2.89,2.89,0,0,0,.79.17A12.16,12.16,0,0,0,231,147.22Z" style="fill:#263238"></path><path d="M228.2,169a34.06,34.06,0,0,0,18.25-3.56s-5,8.9-18.29,6.73Z" style="fill:#6f4439"></path><path d="M238.58,128.1c.18.51,2,.27,4.2.54s3.93.86,4.22.41c.13-.22-.17-.69-.88-1.18a7.38,7.38,0,0,0-6.42-.72C238.91,127.47,238.5,127.86,238.58,128.1Z" style="fill:#263238"></path><path d="M221.55,126.08c.29.44,1.59.1,3.13.18s2.8.47,3.13.06c.15-.21,0-.64-.57-1.08a4.55,4.55,0,0,0-5.05-.19C221.62,125.45,221.42,125.87,221.55,126.08Z" style="fill:#263238"></path><path d="M212.31,132.86a9.19,9.19,0,0,1,2.36-5.72c.8-.83,1.82-1.44,2.54-2.34,1.55-2,1.4-4.71,2.1-7.1a10.13,10.13,0,0,1,6.43-6.66c2.53-.84,5.38-.65,7.77-1.85,1.76-.89,3.13-2.46,4.94-3.24,3.54-1.52,7.55.37,10.81,2.42.59,2.63-1.12,4.87-2.77,7a9.35,9.35,0,0,1-7,3.59c-2.1.08-4.53-.45-6,1s-1.05,4.32-2.36,6.09c-1.88,2.53-6,1.46-8.76,3-2.13,1.18-3.07,3.67-4.18,5.84s-3,4.41-5.42,4.24A27.08,27.08,0,0,1,212.31,132.86Z" style="fill:#263238"></path><path d="M243.92,113a47.54,47.54,0,0,1,17.88,3.66,8.61,8.61,0,0,1,4.35,3.15,8.45,8.45,0,0,1,.82,4.67c-.17,5-2.34,11.12-4.36,15.72l-6.36,3.6c-4.8-1.25-2.39-9.54-2.05-13.71a9.86,9.86,0,0,1-5.56-8.85A10.9,10.9,0,0,1,243.92,113Z" style="fill:#263238"></path><path d="M256.38,142c.26-2.87,3.8-3.34,6.23-1.8,1.34.84,2.32,2.47,2.07,5.51-.65,8.12-8.67,5.79-8.66,5.55S256.08,145.38,256.38,142Z" style="fill:#ae7461"></path><path d="M258.75,148.41s.13.11.36.24a1.45,1.45,0,0,0,1.05.11c.89-.25,1.72-1.55,1.88-3a4.62,4.62,0,0,0-.24-2.06,1.65,1.65,0,0,0-1-1.17.72.72,0,0,0-.87.32c-.12.22-.09.38-.13.39s-.16-.15-.07-.48a.93.93,0,0,1,.36-.48,1.07,1.07,0,0,1,.8-.14,2,2,0,0,1,1.37,1.37,4.85,4.85,0,0,1,.31,2.31c-.18,1.63-1.14,3.09-2.34,3.34a1.54,1.54,0,0,1-1.28-.32C258.74,148.61,258.72,148.42,258.75,148.41Z" style="fill:#6f4439"></path><path d="M262.62,153.6a7.27,7.27,0,0,0,1.3,0,5,5,0,0,0,1.43-.4l-.09-.05a4,4,0,0,0,6.38,2.72l-.14,0a1.7,1.7,0,0,0,1.05.74,2.48,2.48,0,0,0,1.32-.08,2.17,2.17,0,0,0,1.08-.84,2.8,2.8,0,0,0,.44-1.33,4.14,4.14,0,0,0-.82-2.73,12.43,12.43,0,0,0-2.09-2.14l0,.19a2.84,2.84,0,0,0,1.33-1.89,4.23,4.23,0,0,0-.17-2.41,6.43,6.43,0,0,0-1.38-2.06,19.85,19.85,0,0,0-1.88-1.67v.18a3,3,0,0,0,.86-2.34,4.38,4.38,0,0,0-.86-2.44,11,11,0,0,0-3.9-2.86l.06.15a5.4,5.4,0,0,0-5.71-6.81l.13.15a4.65,4.65,0,0,0-1-4,4.57,4.57,0,0,0-3.39-1.77l.1.1a4.59,4.59,0,0,0-1.77-3.59,4.47,4.47,0,0,0-3.37-1l.09.08a4.49,4.49,0,0,0-.61-2.1,5.81,5.81,0,0,0-1.2-1.52,4.69,4.69,0,0,0-2.75-1.27l-.31,0-.28,0a4,4,0,0,0-.52,0,5.79,5.79,0,0,0-.78.2l-.46.18-.15.07.16,0,.46-.16a6.14,6.14,0,0,1,.78-.18,4,4,0,0,1,.51,0,1.29,1.29,0,0,1,.28,0l.3,0a4.5,4.5,0,0,1,2.67,1.27,5.4,5.4,0,0,1,1.16,1.5,4.28,4.28,0,0,1,.58,2v.1l.09,0a4.3,4.3,0,0,1,3.24,1,4.38,4.38,0,0,1,1.67,3.44v.1h.1a4.63,4.63,0,0,1,4.18,5.49l0,.16.16,0a5.16,5.16,0,0,1,5.44,6.51l0,.1.09,0a10.84,10.84,0,0,1,3.81,2.79,4.14,4.14,0,0,1,.81,2.3,2.77,2.77,0,0,1-.78,2.15l-.1.1.11.09a9.52,9.52,0,0,1,3.19,3.63,3.89,3.89,0,0,1,.17,2.26,2.63,2.63,0,0,1-1.22,1.75l-.14.08.12.11a11.68,11.68,0,0,1,2.07,2.09,3.93,3.93,0,0,1,.79,2.59,2.2,2.2,0,0,1-1.38,2,1.81,1.81,0,0,1-2.14-.57l-.05-.09-.09.06a3.9,3.9,0,0,1-4.1.29,4,4,0,0,1-2-2.87V153l-.08,0a4.92,4.92,0,0,1-1.4.4,8.16,8.16,0,0,1-1.28.07,5,5,0,0,1-2-.43,1.92,1.92,0,0,1-.93-.82,3.93,3.93,0,0,1-.15-.4.54.54,0,0,0,0,.11,1.31,1.31,0,0,0,.1.31,1.89,1.89,0,0,0,.92.86" style="fill:#455a64"></path><path d="M290.74,143.86a3.21,3.21,0,0,0,.32-.49,4.15,4.15,0,0,0,.46-1.59,4.05,4.05,0,0,0-.6-2.57,4.36,4.36,0,0,0-2.9-1.94l.06.1a5.59,5.59,0,0,0-.64-4,5.31,5.31,0,0,0-1.55-1.73,14.12,14.12,0,0,0-2.2-1.1,4.42,4.42,0,0,1-1.05-.66,2.83,2.83,0,0,1-.72-1c-.34-.79-.44-1.71-.88-2.56a4.92,4.92,0,0,0-4.89-2.57l.14.14a6.51,6.51,0,0,0-7.05-7.55l.13.14a5.72,5.72,0,0,0-8.77-5.56l.13,0a7.76,7.76,0,0,0-2.79-1.8,12.09,12.09,0,0,0-2.91-.74,13.75,13.75,0,0,0-4.82.22,10,10,0,0,0-2.9,1.12,7.58,7.58,0,0,0-.67.47l-.22.17s.31-.22.93-.58a9.57,9.57,0,0,1,2.88-1.06,13.66,13.66,0,0,1,4.78-.17,11.58,11.58,0,0,1,2.85.75,7.7,7.7,0,0,1,2.73,1.76l.05.06.08,0a5.49,5.49,0,0,1,8.41,5.34l0,.16.16,0a6.29,6.29,0,0,1,6.78,7.27l0,.16.16,0a4.73,4.73,0,0,1,4.66,2.43c.41.8.51,1.72.87,2.55a3,3,0,0,0,.78,1.09,4.77,4.77,0,0,0,1.11.69,13.28,13.28,0,0,1,2.17,1.07,5.22,5.22,0,0,1,1.5,1.65,5.41,5.41,0,0,1,.65,3.9l0,.08.09,0a4.22,4.22,0,0,1,2.82,1.85,4,4,0,0,1,.63,2.49,4.24,4.24,0,0,1-.42,1.58C290.85,143.69,290.73,143.85,290.74,143.86Z" style="fill:#455a64"></path><path d="M197.44,131.34s0-.05.09-.15l.24-.45c.2-.41.5-1,.87-1.74s.82-1.7,1.44-2.73a7.19,7.19,0,0,1,2.79-2.86c.66-.34,1.43-.56,2.2-.88a5,5,0,0,0,1.12-.63,2.74,2.74,0,0,0,.86-1c.4-.83.44-1.79.76-2.65a2.34,2.34,0,0,1,.81-1.1,4.47,4.47,0,0,1,1.32-.57,8.13,8.13,0,0,0,1.45-.52,2.65,2.65,0,0,0,1.14-1.13,12.05,12.05,0,0,0,.77-3.13,3.81,3.81,0,0,1,.57-1.48,2,2,0,0,1,1.31-.82c1.07-.2,2.21.2,3.41,0a2.91,2.91,0,0,0,1.58-.79,7.63,7.63,0,0,0,1.05-1.38,13.79,13.79,0,0,1,.92-1.38,3.09,3.09,0,0,1,1.22-1,4.76,4.76,0,0,1,3.07.1,7.19,7.19,0,0,0,3.08.34,8.51,8.51,0,0,0,2.72-1.16,13.45,13.45,0,0,1,2.42-1.28,8.46,8.46,0,0,1,4.83,0,9.11,9.11,0,0,1,3.53,1.92,10.17,10.17,0,0,1,1.92,2.38,11.27,11.27,0,0,1,.8,1.77c.07.19.13.35.18.47s.06.16.07.16a1.08,1.08,0,0,0,0-.17l-.15-.48a10.54,10.54,0,0,0-.77-1.8,9.7,9.7,0,0,0-1.91-2.43,9.07,9.07,0,0,0-3.58-2,8.48,8.48,0,0,0-4.94,0,13.49,13.49,0,0,0-2.47,1.28,8.16,8.16,0,0,1-2.64,1.12,7,7,0,0,1-3-.34,10,10,0,0,0-1.58-.31,3.36,3.36,0,0,0-1.65.22A3.32,3.32,0,0,0,222,105.8a14.87,14.87,0,0,0-.94,1.4,7.29,7.29,0,0,1-1,1.33,2.63,2.63,0,0,1-1.45.72c-1.11.16-2.25-.24-3.42,0a2.25,2.25,0,0,0-1.46.91,4.09,4.09,0,0,0-.61,1.58,11.8,11.8,0,0,1-.74,3.07,2.35,2.35,0,0,1-1,1,8.34,8.34,0,0,1-1.4.51,4.79,4.79,0,0,0-1.39.61,2.5,2.5,0,0,0-.88,1.2c-.34.91-.37,1.86-.75,2.64a3.31,3.31,0,0,1-1.87,1.58c-.75.32-1.52.55-2.2.9a7.42,7.42,0,0,0-2.83,3c-.61,1-1,2-1.4,2.75l-.84,1.77c-.09.19-.16.34-.21.46A1.37,1.37,0,0,0,197.44,131.34Z" style="fill:#455a64"></path><path d="M206.29,123l-.15,0a.91.91,0,0,0-.43.09,1.71,1.71,0,0,0-.84,1.42,4.12,4.12,0,0,0,.14,1.22,4.91,4.91,0,0,1,.18,1.41,3.14,3.14,0,0,1-.61,1.49c-.32.48-.74,1-1.07,1.53a2.31,2.31,0,0,0-.25,2c.24.7.73,1.29,1,2a3,3,0,0,1-.27,2.23c-.34.74-.81,1.45-1.14,2.27a3.79,3.79,0,0,0-.29,1.31,3.3,3.3,0,0,0,.28,1.35,16.15,16.15,0,0,0,1.49,2.36,3.66,3.66,0,0,1,.8,2.59,12,12,0,0,1-1,2.72,4.21,4.21,0,0,0-.34,1.49,3.38,3.38,0,0,0,.35,1.47,12.64,12.64,0,0,0,1.7,2.34,6.76,6.76,0,0,1,1.37,2.33,19.81,19.81,0,0,0,.78,2.55,2.88,2.88,0,0,0,.81,1,3.79,3.79,0,0,0,1.13.58,11.34,11.34,0,0,1,1.12.43,4.36,4.36,0,0,1,.93.66,8.7,8.7,0,0,1,1.29,1.77c.36.61.69,1.22,1.07,1.76a5.53,5.53,0,0,0,2.78,2.15,5.87,5.87,0,0,0,2.65.31,5.34,5.34,0,0,0,1.63-.43,5.41,5.41,0,0,0,.52-.28,6.27,6.27,0,0,1-2.16.62,6,6,0,0,1-2.59-.35,5.43,5.43,0,0,1-2.69-2.12c-.36-.53-.69-1.13-1.05-1.76a8.78,8.78,0,0,0-1.31-1.82,4.29,4.29,0,0,0-1-.7,12.17,12.17,0,0,0-1.14-.44,3.74,3.74,0,0,1-1.07-.55,2.73,2.73,0,0,1-.74-1,21.48,21.48,0,0,1-.77-2.53,6.9,6.9,0,0,0-1.4-2.41,11.75,11.75,0,0,1-1.67-2.3,3.16,3.16,0,0,1-.32-1.36,4.12,4.12,0,0,1,.32-1.4,12.1,12.1,0,0,0,1.06-2.78,3,3,0,0,0-.17-1.47,5.84,5.84,0,0,0-.67-1.29,15,15,0,0,1-1.48-2.31,3,3,0,0,1-.26-1.25,3.29,3.29,0,0,1,.27-1.24c.31-.79.77-1.5,1.12-2.26a3.25,3.25,0,0,0,.27-2.38c-.26-.76-.75-1.35-1-2a2.13,2.13,0,0,1,.22-1.89c.32-.56.73-1,1.05-1.53a3.29,3.29,0,0,0,.62-1.57,5,5,0,0,0-.2-1.45,4.42,4.42,0,0,1-.17-1.18,1.73,1.73,0,0,1,.77-1.39A1,1,0,0,1,206.29,123Z" style="fill:#455a64"></path><path d="M203.56,117.37l0-.15,0-.46.21-1.75c.09-.76.22-1.68.45-2.74a16.19,16.19,0,0,1,1.16-3.49,10.39,10.39,0,0,1,2.68-3.5,7.59,7.59,0,0,1,2.11-1.23,21.09,21.09,0,0,1,2.55-.67,7.22,7.22,0,0,0,2.59-1.08,11.5,11.5,0,0,0,2.12-2c.65-.75,1.27-1.53,2-2.24A8.2,8.2,0,0,1,222,96.3a14.86,14.86,0,0,1,5.9-1.11,38,38,0,0,1,5.65.37,28.91,28.91,0,0,1,9.13,2.78,20.28,20.28,0,0,1,5.22,3.77c.27.27.51.51.71.73l.48.57.29.35.11.11s0,0-.09-.13l-.27-.36-.47-.59c-.19-.22-.43-.47-.69-.75a20,20,0,0,0-5.21-3.85,28.69,28.69,0,0,0-9.18-2.86,38.33,38.33,0,0,0-5.68-.38,14.73,14.73,0,0,0-6,1.13,8.56,8.56,0,0,0-2.56,1.79c-.73.73-1.35,1.52-2,2.26a11.69,11.69,0,0,1-2.07,2,7.42,7.42,0,0,1-2.52,1,20.89,20.89,0,0,0-2.56.68,7.77,7.77,0,0,0-2.17,1.28,10.62,10.62,0,0,0-2.71,3.59,15.9,15.9,0,0,0-1.13,3.53c-.22,1.07-.34,2-.42,2.76s-.13,1.36-.16,1.76c0,.19,0,.34,0,.46Z" style="fill:#263238"></path><path d="M239.31,152.71a3.61,3.61,0,0,0-2.08-3.08,3.19,3.19,0,0,0-3.58.75,2.87,2.87,0,0,0-.2,3.44,3.26,3.26,0,0,0,1.37,1.23,4,4,0,0,0,2.35.26,2.72,2.72,0,0,0,1.69-.91A2.51,2.51,0,0,0,239.31,152.71Z" style="fill:#6f4439"></path><path d="M256.91,156.34a20.9,20.9,0,0,1,3.25-5.86l.55-.25a13.92,13.92,0,0,1,2.41,5.14,4.73,4.73,0,0,1-2,5,3.75,3.75,0,0,1-2.57.33,2.66,2.66,0,0,1-1.66-1.06A3.7,3.7,0,0,1,256.91,156.34Z" style="fill:#e0e0e0"></path><path d="M255.44,112c7.32,5.09,8.36,7.43,9.58,16.34a19.09,19.09,0,0,1-2.12,12.15q-1.72-.6-3.51-1.11s3.67-8.73-.48-16.73c-4.72-9.09-15-9.64-15-9.64-1.42-1.92-2.15-3.41-4.08-4.35C239.84,108.67,249,107.54,255.44,112Z" style="fill:#FF725E"></path><path d="M216.89,116s-2.7,1.84-4,9.49c-2.27,12.85,3.78,20.25,3.78,20.25l3.3-26.06Z" style="fill:#FF725E"></path><path d="M244.54,113.72c-1.7-3-4.23-5.71-7.65-5.92a8.79,8.79,0,0,0-8.29,5,8.19,8.19,0,0,0-11.45,11.08,7.57,7.57,0,0,0-4.9,8.76c.28,1.1.82,2.12,1.17,3.19a4.69,4.69,0,0,1,.06,3.32,2.29,2.29,0,0,1-2.75,1.37,5.23,5.23,0,0,0,6.56,1.43l.88-7s2.31-4.69,4.18-5.84,7.24.34,9.65-4.16c2.51-4.67.25-5.65,3.88-5.79S247.31,118.57,244.54,113.72Z" style="fill:#263238"></path><path d="M244.54,113.72a6.7,6.7,0,0,1,.36.65,2.61,2.61,0,0,1,.11,2.12,4.19,4.19,0,0,1-2.78,2,20.43,20.43,0,0,1-4.54.76c-.85.07-1.77.08-2.68.18a1.5,1.5,0,0,0-1.1.49,5.44,5.44,0,0,0-.35,1.38,12.1,12.1,0,0,1-1,3.07,6.77,6.77,0,0,1-2.1,2.78A8,8,0,0,1,227,128.5c-1.24.23-2.54.25-3.76.51a2.88,2.88,0,0,0-1.52.93,12.52,12.52,0,0,0-1.22,1.54,31.75,31.75,0,0,0-2.08,3.55l0-.09c-.27,2.23-.57,4.59-.87,7l0,.16-.14.08a5.53,5.53,0,0,1-7-1.51l-.69-.93,1.07.44a1.83,1.83,0,0,0,1.93-.58,2.86,2.86,0,0,0,.65-2.19,14.59,14.59,0,0,0-1.21-3.84,7.34,7.34,0,0,1-.32-4.17,7.88,7.88,0,0,1,5.16-5.85l-.17.45a8.46,8.46,0,0,1,11.84-11.44l-.36.1a9,9,0,0,1,6.71-5,7.33,7.33,0,0,1,3.52.25,7.9,7.9,0,0,1,2.58,1.45,13.09,13.09,0,0,1,2.67,3.07c.25.4.43.7.54.92a1.58,1.58,0,0,1,.15.32,13.85,13.85,0,0,1-.81-1.16,13.88,13.88,0,0,0-2.72-2.94,7.18,7.18,0,0,0-5.87-1.53,8.63,8.63,0,0,0-6.32,4.79l-.12.25-.24-.15a8.23,8.23,0,0,0-9.22.53,8.11,8.11,0,0,0-1.82,10.18l.2.34-.38.12a7.25,7.25,0,0,0-4.71,5.4,6.73,6.73,0,0,0,.29,3.81,14.43,14.43,0,0,1,1.25,4,3.45,3.45,0,0,1-.82,2.67,2.48,2.48,0,0,1-2.64.74l.38-.49a4.89,4.89,0,0,0,6.14,1.34l-.16.24c.31-2.43.61-4.79.9-7v-.05l0-.05a33.07,33.07,0,0,1,2.13-3.62,13.36,13.36,0,0,1,1.3-1.6,4.86,4.86,0,0,1,.81-.68,3.22,3.22,0,0,1,1-.4c1.34-.27,2.6-.28,3.8-.49a7.57,7.57,0,0,0,3.22-1.27,6.23,6.23,0,0,0,2-2.58,11.56,11.56,0,0,0,1-3,5.69,5.69,0,0,1,.42-1.52A1.84,1.84,0,0,1,235,119c1-.1,1.85-.08,2.7-.15a20.8,20.8,0,0,0,4.49-.66,4,4,0,0,0,2.68-1.76,2.59,2.59,0,0,0,0-2A3.1,3.1,0,0,1,244.54,113.72Z" style="fill:#455a64"></path><path d="M240.51,151.74a18.67,18.67,0,0,1-4.12.58,22.36,22.36,0,0,1-4.14.36,13.77,13.77,0,0,1,4.08-.88A15.36,15.36,0,0,1,240.51,151.74Z" style="fill:#263238"></path><path d="M210,183.19l17.85-6.36h0a15.44,15.44,0,0,0,13.73,8.44c6.28-.05,10.45-3.79,13.51-9.11l2.92.78,23.37,6.65L278.73,219l-3.09,33.52,8.68,36.35c-25.46,3.17-55.95,4.68-81.61,1.25l11-33.57-8.57-71.66Z" style="fill:#FF725E"></path><path d="M208.21,183.8l-3.71,1.28s-6.38,4.16-15.2,21.67c-7.3,14.49-9.08,19.15-9.08,19.15L202.36,239l8.18-18.71Z" style="fill:#FF725E"></path><path d="M280.5,183.19h0l.05,0c4.61,2,9.55,6.1,11.59,10.71l13.41,25.35L286.2,238.83l-8-17.92Z" style="fill:#FF725E"></path><path d="M279.62,202.09a.41.41,0,0,1,0,.13l0,.4c0,.37-.05.89-.1,1.54-.1,1.35-.24,3.27-.41,5.65-.37,4.76-.94,11.34-1.57,18.6S276.38,242.26,276,247c-.17,2.37-.31,4.29-.4,5.64-.05.66-.09,1.17-.12,1.54l0,.4c0,.09,0,.13,0,.13v-.13c0-.11,0-.24,0-.4,0-.37,0-.89.07-1.54.07-1.34.18-3.27.33-5.65.3-4.77.79-11.36,1.41-18.63s1.22-13.82,1.63-18.6l.5-5.64c.06-.65.11-1.16.14-1.53l.05-.4A1.11,1.11,0,0,1,279.62,202.09Z" style="fill:#263238"></path><path d="M207.61,204.05s0,0,0,.11,0,.19.05.31c.05.3.11.7.18,1.21.15,1.06.36,2.59.6,4.47.48,3.78,1.07,9,1.68,14.78s1.15,11,1.55,14.8c.2,1.88.36,3.4.48,4.48l.12,1.22,0,.32v.11s0,0,0-.11l-.05-.31c0-.3-.09-.71-.16-1.22-.15-1.05-.34-2.58-.56-4.47-.45-3.78-1-9-1.63-14.79s-1.17-11-1.6-14.79c-.22-1.87-.4-3.39-.52-4.47-.06-.52-.1-.92-.14-1.22,0-.13,0-.23,0-.32A.87.87,0,0,1,207.61,204.05Z" style="fill:#263238"></path><path d="M257.48,177.41a2.22,2.22,0,0,1-.11.39c-.08.26-.22.64-.41,1.11a16.67,16.67,0,0,1-2.2,3.74,17,17,0,0,1-4.86,4.2,16.67,16.67,0,0,1-15.24.55,16.88,16.88,0,0,1-5.15-3.84A16.4,16.4,0,0,1,227,180c-.23-.46-.39-.82-.49-1.07a2.28,2.28,0,0,1-.14-.39,2.68,2.68,0,0,1,.19.37c.11.24.29.6.52,1a17.23,17.23,0,0,0,2.51,3.49,16.74,16.74,0,0,0,5.12,3.75,16.54,16.54,0,0,0,15-.54,17,17,0,0,0,4.83-4.11,16.84,16.84,0,0,0,2.25-3.67c.21-.46.36-.83.45-1.08A3.09,3.09,0,0,1,257.48,177.41Z" style="fill:#263238"></path><path d="M206.86,203.2c0,.05-2.39-1.46-5.25-3.37s-5.15-3.52-5.11-3.57,2.38,1.45,5.25,3.37S206.9,203.14,206.86,203.2Z" style="fill:#263238"></path><path d="M288.1,192.24a47.45,47.45,0,0,1-2.46,4.28c-1.41,2.33-2.61,4.19-2.66,4.16a48.71,48.71,0,0,1,2.45-4.28C286.85,194.07,288,192.21,288.1,192.24Z" style="fill:#263238"></path><path d="M277.19,220.13c0,.14-15.08.26-33.68.26s-33.67-.12-33.67-.26,15.07-.26,33.67-.26S277.19,220,277.19,220.13Z" style="fill:#fff"></path><path d="M277.19,224c0,.14-15.08.26-33.68.26s-33.67-.12-33.67-.26,15.07-.26,33.67-.26S277.19,223.8,277.19,224Z" style="fill:#fff"></path><path d="M293.55,352.34,308.91,382l18.93,20a3.43,3.43,0,0,1-.31,5h0a3.41,3.41,0,0,1-3.07.67c-6.82-1.85-31.59-9.23-32.54-10.74-1.52-2.4-18.64-30.52-18.64-30.52Z" style="fill:#263238"></path><path d="M327.53,407l-37-12.32.68,1.25a5.35,5.35,0,0,0,2.68,2.34c3.06,1.18,11.58,4.23,30.53,9.45a3.45,3.45,0,0,0,3.16-.72Z" style="fill:#455a64"></path><path d="M313.82,397.88c.21,0,0-1.91,1.32-3.69s3.09-2.29,3-2.49-.51-.12-1.25.16a5.48,5.48,0,0,0-3.37,4.78C313.54,397.43,313.73,397.89,313.82,397.88Z" style="fill:#fff"></path><path d="M318.05,400.66c.21,0,.63-1.41,1.91-2.68s2.72-1.73,2.67-1.93-1.75-.05-3.19,1.41S317.86,400.67,318.05,400.66Z" style="fill:#fff"></path><path d="M307.17,395c.22.06.85-2.2,2.67-4.34s3.9-3.2,3.8-3.4-2.44.61-4.36,2.93S307,395,307.17,395Z" style="fill:#fff"></path><path d="M301.75,386.33c.17.13,1.42-1.43,3.49-2.66s4-1.64,4-1.85-2.15-.13-4.36,1.22S301.58,386.24,301.75,386.33Z" style="fill:#fff"></path><path d="M242.34,322.72s-4.54,15.56-3.6,31.83,2.22,91.71,1.74,93,24.23,5,24.23,5,6.26-37.87,7.52-47.58,4.06-11.89,3.75-38.18,6.59-20.79,11.59-29.49,6.88-16.83,4.06-31.86S281,286.63,281,286.63l-31,1.57Z" style="fill:#263238"></path><path d="M205.57,287.64s31.16-15.33,40.06-15.33,15.33,3.47,21.76,15.33,35.12,81.11,35.12,81.11l-21.77,12.86s-27.69-41.05-33.62-50.94l-5.94-9.89s1,13.85-5.44,18.79-23.24-.49-30.17-7.91S192.72,317.32,195.19,305,205.57,287.64,205.57,287.64Z" style="fill:#263238"></path><path d="M205.57,287.64l-.39.3c-.26.2-.64.5-1.11.93a24.54,24.54,0,0,0-3.74,4.2,29.47,29.47,0,0,0-4,8.08,28.89,28.89,0,0,0-1.38,12,22,22,0,0,0,2,6.85,33.73,33.73,0,0,0,4.33,6.55c.86,1.07,1.79,2.11,2.75,3.17s1.93,2.14,3,3.11a32.6,32.6,0,0,0,7.67,4.89,38.81,38.81,0,0,0,9.2,3,24.69,24.69,0,0,0,5,.48,13.07,13.07,0,0,0,5-.92,6.45,6.45,0,0,0,2.15-1.42A5.78,5.78,0,0,0,237,338a8,8,0,0,0,.78-1.06,16.5,16.5,0,0,0,2.1-5,37.81,37.81,0,0,0,1-11.14l0-.93.48.79c2.86,4.69,5.69,9.6,8.82,14.47s6.4,9.86,9.75,14.92c6.71,10.13,13.75,20.64,21,31.41l-.35-.08,3.59-2.12,18.17-10.73-.1.32c-8.64-20.79-16.87-40.37-24.51-58-1.91-4.4-3.78-8.68-5.65-12.8s-3.67-8.14-5.74-11.82a43,43,0,0,0-3.44-5.17,25.44,25.44,0,0,0-4.12-4.29,18.71,18.71,0,0,0-4.89-2.88,20,20,0,0,0-5.29-1.27l-1.32-.11-1.31,0a11,11,0,0,0-1.29.07,10.82,10.82,0,0,0-1.26.15c-.82.18-1.65.31-2.45.53l-2.35.65c-3.07,1-5.92,2-8.55,3-5.28,2.06-9.73,4-13.36,5.62s-6.41,2.91-8.29,3.79l-2.14,1c-.48.23-.74.33-.74.33l.72-.37,2.12-1c1.87-.9,4.64-2.23,8.25-3.87s8.07-3.62,13.34-5.7c2.63-1,5.49-2.08,8.56-3.06l2.37-.67c.8-.22,1.63-.35,2.47-.54a10.83,10.83,0,0,1,1.29-.15,9.5,9.5,0,0,1,1.31-.08l1.33,0,1.34.11a20.73,20.73,0,0,1,5.38,1.27,19,19,0,0,1,5,2.92,25.44,25.44,0,0,1,4.19,4.35,41.43,41.43,0,0,1,3.48,5.21c2.1,3.7,3.91,7.71,5.79,11.84s3.75,8.4,5.68,12.8c7.66,17.6,15.91,37.17,24.55,58l.09.21-.19.11-18.18,10.74-3.58,2.12-.21.13-.14-.21c-7.26-10.77-14.3-21.28-21-31.42-3.35-5.07-6.62-10-9.75-14.93s-5.95-9.8-8.8-14.5l.44-.14a37.87,37.87,0,0,1-1.07,11.3,17.11,17.11,0,0,1-2.15,5.09,9,9,0,0,1-.82,1.1,6,6,0,0,1-.95,1,7,7,0,0,1-2.27,1.49,13.59,13.59,0,0,1-5.19.95,26,26,0,0,1-5.1-.5,39.53,39.53,0,0,1-9.3-3.08,33,33,0,0,1-7.75-5,42.72,42.72,0,0,1-3-3.15c-1-1.06-1.89-2.11-2.75-3.18a33.82,33.82,0,0,1-4.35-6.64,22.34,22.34,0,0,1-2-6.95,29.07,29.07,0,0,1,1.45-12.12,29.5,29.5,0,0,1,4.1-8.09,24.1,24.1,0,0,1,3.81-4.18A11.41,11.41,0,0,1,205.57,287.64Z" style="fill:#455a64"></path><path d="M237.93,294.59a8.71,8.71,0,0,0-2.15,3.39,10.54,10.54,0,0,0-.43,4.33,28.84,28.84,0,0,0,1.13,5.3,75.22,75.22,0,0,0,3.38,9.31c.48,1.08.9,2,1.24,2.75a4.57,4.57,0,0,1,.42,1,4,4,0,0,1-.6-.93c-.36-.62-.84-1.53-1.4-2.68a60.5,60.5,0,0,1-3.54-9.32,26.85,26.85,0,0,1-1.11-5.41,10.66,10.66,0,0,1,.56-4.49,7.36,7.36,0,0,1,1.61-2.59A2.89,2.89,0,0,1,237.93,294.59Z" style="fill:#455a64"></path><path d="M266,422l-1.48,33.24,6.41,26.63a3.41,3.41,0,0,1-2.74,4.16h0a3.39,3.39,0,0,1-3-.94c-5-5-22.67-23.64-22.75-25.41-.12-2.83-.94-35.58-.94-35.58Z" style="fill:#263238"></path><path d="M268.14,486.06l-25.85-29,0,1.41a5.32,5.32,0,0,0,1.14,3.35c2.06,2.53,7.9,9.39,21.66,23.3a3.41,3.41,0,0,0,3.08.94Z" style="fill:#455a64"></path><path d="M260.85,471.36c.18.1,1-1.63,3-2.52s3.8-.45,3.85-.65-.39-.35-1.16-.48a5.41,5.41,0,0,0-5.28,2.46C260.83,470.84,260.77,471.33,260.85,471.36Z" style="fill:#fff"></path><path d="M263.12,475.87c.16.14,1.25-.91,3-1.37s3.2-.14,3.26-.35-1.49-.91-3.45-.35S263,475.77,263.12,475.87Z" style="fill:#fff"></path><path d="M256.56,465.56c.15.16,1.82-1.48,4.45-2.42s4.95-.83,5-1.05-2.4-.69-5.21.36S256.4,465.46,256.56,465.56Z" style="fill:#fff"></path><path d="M256.17,455.41c.08.2,1.94-.53,4.33-.56s4.28.58,4.35.38-1.79-1.18-4.37-1.11S256.07,455.25,256.17,455.41Z" style="fill:#fff"></path><polygon points="419.37 271.74 444.99 461.6 438.17 461.6 405.65 272.2 419.37 271.74" style="fill:#e0e0e0"></polygon><polygon points="405.65 270.29 414.41 323.04 426.37 323.04 419.37 271.74 405.65 270.29" style="fill:#455a64"></polygon><polygon points="88.71 268.54 62.49 461.6 69.32 461.6 102.43 268.99 88.71 268.54" style="fill:#e0e0e0"></polygon><polygon points="102.43 267.08 93.66 319.83 81.71 319.83 88.71 268.54 102.43 267.08" style="fill:#455a64"></polygon><rect x="71.35" y="261.18" width="360.19" height="10.56" style="fill:#263238"></rect></g><g id="freepik--Device--inject-3"><path d="M407.85,203H345.94c-2.05,0-4,1.07-4.32,3.27l-8.25,50.57H300.8a2.07,2.07,0,0,0,0,4.12H404.85L412,208.2A4.41,4.41,0,0,0,407.85,203Z" style="fill:#e0e0e0"></path><path d="M407.85,203a6,6,0,0,1,1.07.17,4.19,4.19,0,0,1,2.4,1.93,4.67,4.67,0,0,1,.64,2.2,6.82,6.82,0,0,1-.11,1.33c-.06.47-.13.95-.2,1.46-.27,2-.59,4.33-.94,6.94-1.42,10.44-3.46,25.48-6,43.92l.11-.09-100.6,0h-3.44a2.2,2.2,0,0,1-.62-.12,1.85,1.85,0,0,1-.92-.85,2,2,0,0,1,.33-2.37,1.65,1.65,0,0,1,1.12-.51h32.77v-.11c2.76-17,5.34-32.79,7.65-47,.14-.88.29-1.77.43-2.64.07-.43.14-.88.22-1.3a3.52,3.52,0,0,1,.52-1.15,3.76,3.76,0,0,1,2-1.42,5.23,5.23,0,0,1,1.23-.23c.42,0,.85,0,1.27,0h27.24l24.83,0,6.64,0,1.71,0h-1.71l-6.64,0-24.83,0-17.43,0h-9.81c-.42,0-.84,0-1.28,0a5.65,5.65,0,0,0-1.28.23,4,4,0,0,0-2.15,1.5,3.69,3.69,0,0,0-.55,1.23c-.09.45-.15.88-.23,1.32-.14.87-.29,1.75-.43,2.64-2.32,14.2-4.91,30-7.68,47l.12-.11H300.7a1.92,1.92,0,0,0-1.29.59A2.32,2.32,0,0,0,299,260a2.09,2.09,0,0,0,1.06,1,2,2,0,0,0,.72.13h3.44l100.6,0h.09V261c2.47-18.44,4.48-33.48,5.87-43.93.35-2.61.66-4.93.92-6.94.07-.51.14-1,.2-1.45a7,7,0,0,0,.09-1.35,4.65,4.65,0,0,0-.66-2.23,4.2,4.2,0,0,0-2.44-1.93,3.47,3.47,0,0,0-.8-.13Z" style="fill:#263238"></path><path d="M370.29,233.36a4.3,4.3,0,1,0,4.3-4.3A4.3,4.3,0,0,0,370.29,233.36Z" style="fill:#fff"></path><path d="M336.53,260.47c.1,0,2.28-12.72,4.88-28.44s4.62-28.48,4.53-28.5-2.28,12.72-4.88,28.44S336.44,260.45,336.53,260.47Z" style="fill:#263238"></path></g></svg>
